<svg width="110" height="83" viewBox="0 0 110 83" fill="none" xmlns="http://www.w3.org/2000/svg">
<path d="M11.06 42.0901V49.7801L0.36 47.1401L0 39.5601L11.06 42.0901Z" fill="#E4007F"/>
<path d="M54.5901 82.49L54.8301 9.38C61.2701 9.38 67.7201 10.66 73.7101 12.99L93.6701 0L94.0301 29.46C96.3301 33.13 97.7201 37.39 98.1201 41.73L98.7201 42.09L109.18 39.56V46.77C105.51 48.73 96.1801 48.83 97.8801 51.82C98.1601 52.31 107.57 54 108.82 54.59L109.18 61.93C108.99 62.2 108.88 62.22 108.58 62.29C107.93 62.44 97.3601 59.08 95.5901 58.92C87.2401 74.69 72.2101 82.48 54.5901 82.49Z" fill="#E4007F"/>
<path d="M54.8301 9.38L54.5901 82.49C38.0601 82.49 20.8001 74.54 13.9501 58.68C13.6001 57.86 11.6301 52.12 11.5501 51.71C11.5301 51.6 12.1601 50.44 11.0701 49.79V42.09C12.2701 37.61 13.1601 32.98 15.6401 28.98L15.7601 0L35.7201 12.99C36.6901 13.1 43.9101 9.37 54.8401 9.38H54.8301Z" fill="#E4007F"/>
<path d="M85.45 14.07C85.3 14.85 84.79 15.18 84.15 15.53C84.12 15.62 84.82 16.3 84.65 17.2C84.4 18.57 82.69 19.11 81.75 18.04C81.49 17.74 79.94 14.98 79.55 14.37C80.27 13.97 82.57 12.5 83.08 12.26C84.31 11.69 85.7 12.72 85.44 14.07H85.45Z" fill="#221714"/>
<path d="M26.0199 17.8399C25.9099 17.0499 26.2899 16.5799 26.7899 16.0399C26.7899 15.9499 25.9099 15.5199 25.7799 14.6199C25.5899 13.2399 27.0299 12.1899 28.2599 12.8999C28.5999 13.0999 30.9499 15.2299 31.5099 15.6799C30.9499 16.2799 29.2399 18.4099 28.8299 18.7999C27.8399 19.7299 26.1999 19.1999 26.0199 17.8399Z" fill="#221714"/>
<path d="M13.95 58.68L0.36 62.29L0 61.93L0.12 54.59L11.54 51.7C11.62 52.12 13.59 57.8499 13.94 58.6699L13.95 58.68Z" fill="#E4007F"/>
<path d="M52.77 27.8201H57.02C61.32 27.8201 64.81 31.3101 64.81 35.6101V38.5401C64.81 40.3201 63.36 41.7701 61.58 41.7701H48.2C46.42 41.7701 44.97 40.3201 44.97 38.5401V35.6101C44.97 31.3101 48.46 27.8201 52.76 27.8201H52.77Z" fill="#221714"/>
<path d="M59.44 34.8L62.5601 42.4001H57.55L59.44 34.8Z" fill="#E4007F"/>
<path d="M50.7699 34.8L47.6499 42.4001H52.6599L50.7699 34.8Z" fill="#E4007F"/>
</svg>
