<?xml version="1.0" encoding="UTF-8"?>
<svg id="_レイヤー_2" data-name="レイヤー_2" xmlns="http://www.w3.org/2000/svg" viewBox="0 0 179.72 134.24">
  <defs>
    <style>
      .cls-1 {
        fill: #5f2560;
      }

      .cls-2 {
        fill: #e4007f;
      }

      .cls-3 {
        fill: #231815;
      }

      .cls-4 {
        fill: #701e74;
      }
    </style>
  </defs>
  <g id="_レイヤー_1-2" data-name="レイヤー_1">
    <g id="_生成オブジェクト" data-name="生成オブジェクト">
      <g>
        <path class="cls-2" d="M20.16.19c2.18-.28,41.82-.28,43.98.2,5.91,1.3,10.77,11.7,15.36,15.75h71.2c7.86,1.04,13.66,7.73,13.7,16.83.41,1.03,7.8-1.83,12.74,5.31,2.3,3.34,3.11,7.9,2.27,12.01l-13.44,65.75c-4.82,20.75-18.66,15.49-24.17,16.44-.47.08-3.29,1.67-5.06,1.77H12.3c-6.64-1-11.03-5.92-12.3-13.29V17.02C1.24,9.5,6.21,5.27,12.83,4.91,14.45,2.39,17.41.54,20.16.19Z"/>
        <path class="cls-2" d="M56.63,37.79c35.64-.19,71.32.55,106.97.2,5.12,1.51,9.66,4.45,9.51,11.12-.12,5.73-11.71,55.95-13.61,66.73-1.07,3.57-2.15,4.39-3.49,6.5-.05.08.68.05-.17,1.08-2.34,2.83-5.45,2.57-8.55,2.76-38.22.14-76.43-.25-114.65-.04-.06-.28.11-.72-.09-.94-1.18-1.34-14.21,3.28-17.71-4.23-.46-.99-1.01-3.05-1.05-4.13-.11-3.61,12.63-61.07,13.96-70.47.89-3.42,3.28-7.38,6.54-8.17,1.91-.46,18.74-.37,22.34-.39Z"/>
        <path class="cls-3" d="M16.97,28.06c2.26-8.32,6.73-4.21,12.47-5.84.39-.11.78-.19,1.18-.19,14.86-.18,29.73.05,44.6,0,24.65-.07,49.29-.3,73.94,0,.27,0,.54.03.8.08,4.46.89,7.08,3.51,8.27,7.34,1.07,3.43-1.24,7.01-4.46,7.16-3.17.15-6.39.16-9.53.19-36.22.41-72.49-.7-108.72-.2-.35,0-.7.04-1.03.14-3.2.92-6.06,3.81-7.26,7.25-1.35,3.92-7.12,36.35-9.33,46.11-.17.73-.46,1.42-.88,2.02h0s-.26-62.41-.26-62.41c0-.55.07-1.11.21-1.64Z"/>
        <path class="cls-2" d="M37.61,6.09c3.87-.06,22.33-.25,24.08,0,3.96.57,10.16,11.13,13.35,14.47l-58.55.1c-.5-.24-.86-.93-.96-1.48-.8-4.41.1-12.01,4.97-12.89,1.54-.28,14.07-.15,17.1-.2Z"/>
      </g>
      <g>
        <path class="cls-4" d="M75.21,21.46s74.4-.01,74.44,0c7.65,1.09,10.32,8.06,9.9,14.94,0,0-.01.58-.01.58h-1.16c.46-6.81-1.72-13.28-8.84-14.37,0,0-74.33,0-74.33,0-.1,0-.16,0-.16,0-1.21-.63-.68-.6.16-1.15h0Z"/>
        <path class="cls-1" d="M156.72,124.15c-1.91,2.53-5.46,3.13-8.34,3.12-2.78.1-5.51.03-8.27.05h-16.53c-23.84-.01-58.88-.02-82.63-.03-4.61.09-11.9-.23-16.38.23-1.76.02-5.09.07-6.5.09-1.55-.52-1.82-.63-1.37-.62,1.73.14,6.08.24,7.59-1.76,4.86-.49,11.74-.15,16.64-.24,23.7,0,58.8.02,82.59.03,0,0,16.52,0,16.52,0,2.75-.02,5.52.05,8.25-.05,2.56-.08,5.01-.24,6.65-2.29.58-.49,1.51-1.65,2.08-1.91,1.64-.46,0,2.93-.3,3.38h0Z"/>
      </g>
    </g>
  </g>
</svg>