<?xml version="1.0" encoding="UTF-8"?>
<svg xmlns="http://www.w3.org/2000/svg" width="32" height="32" viewBox="0 0 32 32">
<path
    d="M16 29S4 20 4 10.5C4 5.253 8.253 1 13.5 1 16 1 16 3 16 3s0-2 2.5-2C23.747 1 28 5.253 28 10.5 28 20 16 29 16 29z"
    fill="red"
  />
  <defs>
    <style>
      .cls-1 {
        fill: #e4007f;
      }

      .cls-2 {
        fill: #fff;
      }
    </style>
  </defs>
  <g id="_レイヤー_2-2" data-name="レイヤー 2">
    <g id="_生成オブジェクト" data-name="生成オブジェクト">
      <path class="cls-2" d="M318.37,586.24l-5.29-3.32c-54.41-34.1-111.82-71.9-163.06-117.17-57.66-50.94-98.68-103.73-125.4-161.38l-.17-.39c-.05-.1-.11-.21-.16-.31-.31-.58-.76-1.4-1.21-2.49-.63-1.5-.99-2.75-1.23-3.58,0-.03-.02-.06-.02-.08l-.04-.08c-.44-.83-.85-1.67-1.13-2.33-.64-1.52-1.01-2.79-1.25-3.62-.02-.06-.03-.12-.05-.17-.43-.75-1.02-1.9-1.54-3.34-.29-.79-.61-1.75-.92-2.73l-.03-.1c-.11-.34-.22-.7-.34-1.04-.31-.87-.62-1.81-.92-2.74l-.69-2.08c-.35-1.03-.73-2.16-1.05-3.15-.1-.32-.22-.65-.33-.98l-.1-.29c-.32-.93-.63-1.86-.88-2.67-.08-.26-.17-.51-.26-.76l-.08-.23c-.34-.96-.68-1.98-.96-2.94-.4-1.39-.71-2.71-.94-3.67l-.03-.12c-.11-.46-.22-.94-.34-1.4l-.05-.19c-.09-.29-.24-.67-.32-.9-.33-.9-.71-1.95-1.04-3.32-.1-.4-.22-.86-.34-1.33l-.08-.29c-.33-1.25-.67-2.57-.92-3.77-.09-.43-.23-.92-.36-1.4l-.09-.33c-.31-1.16-.64-2.38-.88-3.68-.12-.63-.26-1.28-.4-1.94l-.04-.17c-.29-1.39-.63-2.98-.88-4.54-.07-.45-.22-1.09-.36-1.72-.33-1.49-.69-3.13-.94-4.92-.09-.68-.24-1.42-.38-2.17l-.05-.27c-.3-1.61-.64-3.44-.86-5.36-.09-.69-.23-1.56-.38-2.45l-.03-.16c-.35-2.16-.73-4.52-.91-6.84-.85-10.84-.85-27.92,0-38.83.17-2.28.54-4.61.91-6.87l.04-.21c.14-.84.27-1.66.37-2.39.22-1.89.56-3.73.86-5.36l.05-.29c.13-.72.27-1.43.36-2.07.25-1.79.62-3.47.94-4.94l.06-.27c.12-.54.24-1.07.32-1.56.35-2.09.88-4.62,1.4-7.03.35-1.6.75-2.7,1.05-3.5.09-.24.27-.71.38-1.06.11-.45.35-1.42.35-1.42.29-1.21.63-2.61,1-3.9.21-.76.51-1.69.98-3.02l.07-.2c.11-.3.22-.62.31-.9.25-.83.59-1.83.93-2.83.16-.46.29-.85.41-1.21.42-1.31.95-2.92,1.41-4.21.1-.27.18-.56.27-.84l.06-.18c.3-.94.65-2.04,1.06-3.11.58-1.5,1.14-2.55,1.49-3.15.23-.85.68-2.46,1.53-4.32C38.07,68.2,71.3,33.65,113.35,13.71l.58-.28.23-.09c.56-.32,1.65-.93,3.16-1.51,1.14-.43,2.29-.81,3.37-1.15.37-.12.72-.23,1.05-.34,1.36-.46,3-1.02,4.25-1.41.31-.1.67-.22,1.02-.34l.3-.1c.89-.31,1.92-.67,2.98-.96.33-.1.84-.29,1.16-.4.94-.34,1.96-.7,3.25-1.01.42-.1.86-.22,1.32-.34l.17-.04c1.31-.34,2.75-.72,4.18-1.01.42-.09,1.14-.29,1.68-.44,1.29-.35,2.5-.67,3.86-.91.46-.08.97-.2,1.48-.31l.29-.06c1.48-.33,3.34-.74,5.24-.98.84-.11,1.78-.26,2.73-.42,2.23-.36,4.51-.72,6.8-.91,5.26-.45,11.77-.67,19.33-.67s15.72.23,22.88.63l.49.03.5.05c3.23.33,7.35.84,10.75,1.35,1.71.25,3.38.61,4.86.93l.26.06c.58.12,1.15.25,1.67.34,2.13.38,4.5.88,6.75,1.35,1.33.28,2.68.63,3.87.94l.13.03c.55.14,1.08.28,1.55.4l.57.14c1.58.38,3.4.82,4.96,1.25,1.08.3,2.07.64,2.95.95l.21.07c.34.12.7.25,1.02.34.86.26,1.89.61,2.92.96l.27.09c.3.1.6.21.88.3,1.29.42,2.8.92,4.08,1.36.37.13.75.25,1.13.37,1.05.34,2.08.68,2.99,1.01.19.07.38.12.57.18l.2.06c.92.29,2.03.63,3.3,1.13.2.07.4.13.63.2.88.27,2.08.62,3.48,1.21,17.5,7.3,36.78,18.71,58.8,34.81,17.72-12.28,36.87-24.49,57.67-33.47l.1-.04c.48-.28,1.63-.93,3.19-1.52,1.2-.46,2.34-.82,3.17-1.08l.13-.04c.24-.08.49-.15.73-.24.93-.34,1.96-.68,2.99-1.01.41-.13.79-.26,1.16-.38l.75-.26c1.14-.39,2.38-.8,3.39-1.12.31-.1.63-.21.95-.32l.13-.05c.99-.34,2.02-.69,2.99-.98.29-.08.6-.2.89-.3l.27-.1c.88-.31,1.78-.63,2.83-.92,1.28-.35,2.67-.69,4.02-1.02l1.25-.31c.32-.1.7-.25.86-.31.8-.3,2.01-.76,3.71-1.12l.88-.18c1.93-.41,4.11-.86,6.08-1.2.48-.08,1.02-.21,1.57-.33l.26-.06c1.54-.34,3.2-.7,4.95-.94.64-.09,1.34-.22,2.05-.36l.31-.06c1.62-.3,3.44-.64,5.33-.86,4-.53,8.57-1.1,12.26-1.34,4.84-.34,10.93-.52,17.11-.52,4.34,0,10.73.09,16.55.54,2.68.2,5.7.62,8.37.99l.33.05c.78.11,1.53.21,2.22.3,1.95.24,4.09.62,6.17,1l.16.03c.64.12,1.27.23,1.84.32,1.38.23,2.56.55,3.94.92.56.15,1.31.36,1.75.45,1.54.32,3.26.76,4.77,1.16l1.15.3c.35.09.75.18,1.16.28l.19.04c1.3.3,2.9.68,4.49,1.17,1.1.34,2.44.79,3.73,1.23l.58.2c.31.11.62.21.94.31l.16.05c1.05.33,2.17.7,3.2,1.09,1.49.56,2.62,1.17,3.25,1.53,2.57.99,4.83,1.88,6.5,2.62l.22.1c40.03,18.31,73.41,53.44,93.98,98.92.82,1.83,1.26,3.39,1.49,4.25.48.84,1.11,2.07,1.65,3.59.49,1.43,1.03,3.02,1.43,4.3.12.38.25.76.38,1.14l.03.1c.33.95.64,1.89.89,2.7.08.25.17.5.26.75l.1.3c.33.95.68,1.96,1,3.08.35,1.25.68,2.58.98,3.84l.02.09c.12.5.24,1,.36,1.47l.27,1.05c.37,1.45.79,3.06,1.1,4.45.09.39.21.84.33,1.29l.04.16c.31,1.18.67,2.52.96,3.94l.37,1.82c.36,1.76.69,3.35.95,4.82.1.55.24,1.18.38,1.81l.03.12c.32,1.46.67,3.08.92,4.76l.31,2.08c.33,2.14.74,4.84,1.01,7.26l.18,1.74c.45,4.44,1.01,9.96,1.17,14.6.25,5.96.25,12.68,0,19.88v.36c-.19,3.31-.58,6.79-.97,10.16l-.02.18c-.12,1.05-.24,2.08-.34,3.04-.22,2.22-.61,4.68-.94,6.85-.14.89-.27,1.74-.38,2.52-.28,2.02-.7,4.41-1.04,6.33l-.29,1.65c-.23,1.37-.57,2.59-.89,3.76-.13.49-.32,1.13-.41,1.56l-.05.24c-.12.61-.25,1.24-.37,1.88l-.06.31c-.27,1.42-.56,2.89-.91,4.42-.23,1.03-.53,2.17-.82,3.31-.16.63-.32,1.25-.47,1.84l-.07.27c-.4,1.65-.86,3.55-1.29,5.15-.3,1.11-.64,2.07-.94,2.92l-.09.26c-.09.26-.21.56-.28.83-.24.84-.55,1.79-1.01,3.1l-.08.22c-.09.25-.18.5-.25.73-.26.85-.57,1.77-.89,2.7l-.08.23c-.12.35-.24.69-.34,1.02-.41,1.29-.92,2.8-1.36,4.08-.12.36-.25.75-.38,1.15-.33,1.03-.65,2-.97,2.88-.1.27-.18.54-.26.8l-.05.17c-.28.89-.62,1.93-1.01,2.99-.05.13-.08.26-.12.38l-.08.26c-.24.77-.6,1.97-1.14,3.32-.46,1.2-1,2.2-1.32,2.78-.02.06-.04.12-.05.18-.24.81-.61,2.03-1.18,3.43-.46,1.13-.93,1.99-1.23,2.56-.07.13-.13.24-.18.34-56.5,130.68-179.65,211.31-288.31,282.45l-5.42,3.55h-13.94Z"/>
      <path class="cls-1" d="M321.25,576.24l-2.85-1.79c-54.05-33.88-111.06-71.4-161.75-116.19-56.61-50.01-96.82-101.72-122.95-158.09l-.14-.31c-.11-.26-.33-.67-.49-.97-.24-.44-.51-.94-.77-1.57-.41-.97-.66-1.83-.86-2.52-.13-.44-.23-.78-.36-1.13-.13-.27-.32-.63-.46-.9-.38-.71-.64-1.26-.76-1.55-.41-.98-.66-1.84-.87-2.54-.15-.51-.27-.91-.43-1.32l-.08-.2c-.05-.13-.08-.17-.17-.33-.23-.38-.71-1.17-1.12-2.29-.26-.71-.53-1.53-.8-2.37-.15-.47-.3-.94-.46-1.4-.29-.81-.57-1.68-.85-2.53l-.71-2.12c-.34-1.02-.71-2.1-1.01-3.04-.15-.47-.32-.97-.49-1.46-.28-.82-.56-1.64-.78-2.36-.14-.45-.31-.92-.47-1.39-.3-.87-.59-1.71-.8-2.43-.32-1.11-.58-2.19-.8-3.15-.15-.63-.29-1.27-.47-1.91l-.05-.2c-.11-.42-.44-1.31-.59-1.74-.26-.72-.49-1.33-.68-2.13-.13-.56-.3-1.19-.46-1.82-.31-1.17-.61-2.35-.82-3.34-.15-.68-.37-1.48-.56-2.21-.29-1.1-.55-2.05-.72-2.96-.14-.73-.31-1.52-.47-2.32-.29-1.35-.58-2.75-.8-4.09-.1-.6-.29-1.47-.48-2.32-.29-1.33-.6-2.7-.79-4.07-.13-.91-.31-1.9-.5-2.89-.29-1.55-.58-3.16-.76-4.74-.11-.84-.28-1.92-.46-3.02-.32-2-.66-4.07-.8-5.99-.82-10.43-.82-26.82,0-37.3.14-1.91.49-4.05.82-6.11.17-1.02.33-2.03.45-2.93.18-1.57.48-3.19.77-4.75.18-.97.37-1.94.49-2.82.19-1.39.5-2.8.8-4.17.17-.79.35-1.59.48-2.3.33-1.97.85-4.44,1.32-6.61.2-.9.42-1.51.66-2.16.13-.36.53-1.44.65-1.9.14-.56.28-1.12.41-1.69.29-1.21.59-2.44.9-3.53.18-.63.47-1.5.79-2.43.17-.5.36-1.02.5-1.49.22-.74.52-1.61.82-2.49.16-.47.32-.94.46-1.37.4-1.23.89-2.75,1.32-3.96.15-.42.29-.87.43-1.31.29-.91.58-1.81.88-2.61.36-.94.73-1.57.94-1.95.11-.19.27-.46.35-.68l.12-.3c.14-.33.22-.62.35-1.1.2-.72.47-1.71.98-2.82,19.84-43.27,51.41-76.13,91.31-95.06l.32-.15.33-.13c.24-.1.58-.29.78-.4.37-.21.99-.56,1.84-.89.89-.34,1.87-.66,2.84-.97.42-.13.85-.27,1.24-.4,1.27-.44,2.81-.96,3.98-1.32.49-.15,1.07-.36,1.61-.54.92-.32,1.71-.59,2.44-.79.42-.12,1.35-.45,1.85-.63.83-.3,1.44-.51,2.18-.69.51-.12,1.1-.28,1.68-.43,1.21-.32,2.45-.64,3.62-.88.55-.11,1.56-.38,2.29-.58,1.14-.31,2.04-.55,2.94-.71.68-.12,1.45-.29,2.22-.46,1.44-.32,2.94-.65,4.37-.83.93-.12,1.98-.29,3.05-.46,2.02-.32,4.11-.66,6.03-.82,4.99-.42,11.21-.64,18.48-.64s15.33.22,22.32.61h.27s.27.04.27.04c3.11.32,7.07.81,10.31,1.29,1.37.2,2.81.51,4.2.81.79.17,1.58.34,2.29.47,2.03.37,4.39.86,6.45,1.29,1.14.24,2.35.56,3.52.86.6.16,1.19.31,1.72.44l.58.14c1.51.36,3.24.78,4.66,1.17.72.2,1.44.45,2.29.74.53.19,1.13.4,1.66.56.75.23,1.64.53,2.53.83.47.16.94.32,1.37.46,1.21.39,2.66.87,3.88,1.29.43.15.88.29,1.33.44.9.29,1.79.58,2.59.87.42.15.84.28,1.25.41.79.25,1.68.52,2.64.9.44.17.89.31,1.41.46.74.22,1.57.47,2.5.86,18.2,7.59,38.7,20.02,62.47,37.9,17.71-12.47,38.82-26.69,61.81-36.61l.29-.12c.23-.09.55-.28.75-.39.37-.21.99-.57,1.86-.9.92-.36,1.8-.63,2.58-.88.42-.13.86-.27,1.28-.42.82-.3,1.74-.6,2.65-.9.43-.14.86-.28,1.27-.42l.78-.27c1.06-.36,2.21-.75,3.15-1.05.45-.14.92-.31,1.39-.47.89-.31,1.76-.6,2.49-.82.56-.16,1.17-.38,1.68-.57.78-.28,1.45-.51,2.16-.71,1.17-.32,2.47-.64,3.73-.94l1.44-.35c.5-.12,1.52-.51,1.85-.63.64-.24,1.3-.49,2.23-.69l.86-.18c1.84-.39,3.93-.83,5.71-1.13.71-.12,1.5-.3,2.29-.47,1.37-.3,2.79-.61,4.18-.81.87-.12,1.85-.31,2.81-.49,1.56-.29,3.16-.59,4.73-.76,3.87-.51,8.26-1.07,11.68-1.29,4.65-.32,10.51-.5,16.46-.5,4.15,0,10.26.09,15.79.51,2.39.18,5.24.58,7.75.93.93.13,1.82.25,2.64.36,1.74.22,3.75.58,5.7.92.73.13,1.44.26,2.09.37.9.15,1.78.39,3.01.72.74.2,1.76.47,2.31.59,1.33.27,2.93.69,4.35,1.06l1.09.29c.49.13,1.03.25,1.58.38,1.2.28,2.57.6,3.84.99.99.3,2.29.74,3.42,1.13l.6.2c.41.14.84.28,1.27.41.96.31,1.92.62,2.75.93.95.36,1.64.76,2.01.98.19.11.4.23.6.31l.28.11c2.45.95,4.79,1.86,6.31,2.54l.12.05c37.83,17.3,69.45,50.67,89.03,93.95.5,1.11.77,2.08.97,2.79.13.48.21.76.36,1.1l.12.28.11.29s0,.01,0,.01c.3.47.84,1.34,1.27,2.56.45,1.29.95,2.8,1.34,4.02.15.46.32.95.49,1.44.28.83.56,1.65.78,2.37.14.45.31.94.48,1.41.29.82.58,1.66.82,2.5.3,1.07.6,2.27.88,3.47.14.58.28,1.16.42,1.71l.27,1.06c.36,1.39.75,2.91,1.03,4.16.13.56.3,1.2.47,1.83.29,1.09.59,2.22.81,3.34.12.6.25,1.23.38,1.87.32,1.55.65,3.15.89,4.53.13.72.31,1.53.48,2.33.29,1.35.59,2.74.79,4.1l.32,2.11c.34,2.21.72,4.71.96,6.88l.17,1.64c.43,4.29.97,9.64,1.12,13.94.24,5.75.24,12.23,0,19.18v.19c-.16,2.99-.54,6.32-.91,9.54-.13,1.15-.26,2.27-.37,3.31-.2,1.98-.54,4.2-.88,6.36-.14.92-.28,1.82-.4,2.64-.26,1.86-.65,4.07-.99,6.01l-.29,1.66c-.16.91-.4,1.8-.68,2.84-.2.72-.47,1.71-.58,2.27l-.03.16c-.14.7-.28,1.44-.43,2.18-.26,1.38-.54,2.81-.86,4.2-.22.95-.49,2.01-.76,3.06-.17.67-.34,1.33-.5,1.97l-.07.27c-.38,1.57-.82,3.38-1.23,4.91-.19.72-.43,1.39-.71,2.17-.18.51-.41,1.13-.57,1.68-.21.74-.51,1.62-.83,2.53-.16.46-.33.93-.46,1.35-.22.72-.5,1.54-.78,2.36-.17.49-.34.99-.49,1.45-.39,1.21-.88,2.66-1.3,3.88-.15.43-.3.89-.44,1.35-.28.86-.56,1.73-.85,2.51-.17.46-.31.91-.45,1.36-.27.86-.54,1.69-.84,2.47-.16.41-.27.82-.39,1.21-.23.73-.51,1.64-.89,2.61-.29.77-.64,1.38-.85,1.75-.11.19-.31.55-.4.78-.12.3-.24.71-.4,1.23-.21.7-.47,1.57-.86,2.52-.26.64-.54,1.15-.78,1.59-.15.27-.39.72-.5.98-55.23,127.97-177.12,207.78-284.67,278.19l-2.92,1.91h-8.08Z"/>
      <path class="cls-2" d="M321.73,574.54l-2.44-1.53c-53.99-33.84-110.92-71.32-161.53-116.02-56.43-49.85-96.51-101.38-122.54-157.53l-.12-.26c-.14-.33-.38-.78-.56-1.11-.23-.42-.46-.86-.69-1.4-.38-.9-.61-1.7-.8-2.35-.14-.49-.26-.88-.43-1.32-.15-.32-.37-.73-.53-1.04-.25-.46-.48-.89-.7-1.43-.36-.86-.59-1.64-.79-2.33-.16-.53-.29-.98-.48-1.47l-.07-.19c-.1-.27-.19-.42-.3-.6-.2-.33-.62-1.01-.96-1.96-.27-.72-.53-1.52-.79-2.33-.15-.48-.31-.97-.48-1.45-.28-.81-.57-1.68-.85-2.54-.14-.44-.28-.87-.42-1.29l-.29-.86c-.34-1-.69-2.05-.98-2.96-.15-.46-.32-.97-.5-1.47-.28-.81-.55-1.61-.77-2.32-.14-.47-.32-.97-.49-1.46-.29-.83-.57-1.64-.77-2.34-.31-1.07-.55-2.08-.78-3.06-.15-.65-.31-1.32-.49-1.97l-.05-.18c-.13-.5-.45-1.38-.64-1.9-.25-.69-.46-1.24-.62-1.94-.14-.58-.31-1.22-.47-1.86-.28-1.08-.57-2.2-.8-3.26-.13-.62-.37-1.51-.58-2.3-.29-1.07-.53-1.99-.69-2.84-.14-.75-.31-1.56-.48-2.37-.28-1.33-.57-2.7-.78-4-.11-.65-.3-1.55-.5-2.42-.29-1.29-.58-2.62-.76-3.93-.12-.85-.31-1.88-.51-2.97-.28-1.53-.57-3.1-.74-4.62-.1-.8-.28-1.92-.47-3.1-.32-1.96-.65-3.99-.79-5.83-.81-10.37-.81-26.65,0-37.04.14-1.85.48-3.95.81-5.98.17-1.05.34-2.08.46-2.99.17-1.51.46-3.1.75-4.64.2-1.07.39-2.08.5-2.89.18-1.32.49-2.71.78-4.04.19-.85.38-1.73.49-2.38.34-1.99.88-4.54,1.3-6.54.17-.77.37-1.3.6-1.93.17-.46.57-1.52.7-2.07.14-.56.28-1.13.42-1.7.28-1.15.56-2.34.88-3.48.21-.74.48-1.51.76-2.32.18-.52.38-1.06.52-1.55.22-.73.51-1.59.8-2.44.17-.48.33-.96.47-1.41.39-1.21.88-2.71,1.31-3.92.16-.44.3-.91.45-1.37.25-.78.53-1.66.86-2.53.28-.75.62-1.34.82-1.69.13-.23.33-.57.46-.9l.1-.25c.19-.44.29-.81.43-1.32.19-.7.43-1.57.89-2.57,19.67-42.9,50.96-75.48,90.49-94.23l.27-.13.28-.11c.34-.14.74-.36.98-.5.36-.2.9-.51,1.66-.8.91-.34,1.83-.64,2.71-.92.43-.14.87-.28,1.27-.41l.22-.08c1.18-.4,2.61-.89,3.72-1.24.49-.15,1.09-.36,1.65-.56,1.02-.35,1.68-.58,2.32-.76.5-.14,1.43-.47,1.99-.67.81-.29,1.35-.48,2-.64.52-.13,1.12-.28,1.72-.44,1.19-.31,2.41-.63,3.54-.86.61-.12,1.6-.39,2.4-.61,1.1-.3,1.97-.53,2.8-.67.69-.12,1.49-.3,2.29-.48,1.41-.31,2.86-.63,4.23-.81.95-.12,2.02-.29,3.1-.47,1.99-.32,4.05-.65,5.91-.8,4.94-.42,11.11-.63,18.34-.63s15.27.22,22.23.61h.23s.23.04.23.04c3.1.32,7.02.81,10.24,1.28,1.32.19,2.73.5,4.09.79.81.18,1.62.35,2.34.48,1.97.35,4.34.85,6.4,1.28,1.1.23,2.29.54,3.44.84.61.16,1.21.32,1.76.45l.56.13c1.48.36,3.17.76,4.63,1.17.67.18,1.37.43,2.18.71.56.19,1.18.42,1.73.58.72.22,1.6.51,2.47.81.47.16.95.33,1.39.47,1.2.39,2.63.87,3.85,1.28.44.15.9.3,1.35.44.88.28,1.75.57,2.54.86.43.16.88.29,1.31.43.76.24,1.63.51,2.54.87.49.19,1,.34,1.54.5.7.21,1.49.45,2.33.8,18.32,7.64,39.01,20.24,63.09,38.43,17.85-12.59,39.24-27.1,62.51-37.16l.25-.1c.34-.14.73-.36.96-.49.35-.2.88-.5,1.62-.78.88-.34,1.73-.61,2.49-.85.45-.14.9-.28,1.35-.44.8-.29,1.71-.59,2.61-.88.43-.14.87-.28,1.28-.42l.77-.26c1.05-.36,2.19-.74,3.12-1.03.46-.14.95-.32,1.44-.48.86-.3,1.71-.59,2.42-.79.48-.14,1.16-.38,1.76-.59.76-.27,1.42-.5,2.08-.68,1.12-.31,2.38-.62,3.61-.91l1.5-.37c.6-.15,1.61-.53,2.04-.69.62-.23,1.21-.46,2.03-.62l.78-.17c1.83-.39,3.92-.82,5.67-1.12.66-.11,1.54-.31,2.39-.49,1.33-.29,2.71-.59,4.03-.78.81-.11,1.83-.3,2.9-.5,1.53-.29,3.12-.58,4.62-.75,3.84-.51,8.2-1.06,11.58-1.28,4.62-.32,10.45-.5,16.35-.5,4.12,0,10.19.09,15.66.51,2.33.17,5.15.57,7.64.91.94.13,1.84.26,2.67.36,1.7.21,3.69.57,5.6.91.74.13,1.46.26,2.12.37.82.14,1.67.37,2.84.68.81.22,1.82.49,2.41.61,1.29.27,2.85.68,4.23,1.04l1.14.3c.5.13,1.05.26,1.61.39,1.23.29,2.51.59,3.73.96,1.01.31,2.34.76,3.48,1.15l.51.17c.4.13.83.27,1.26.41.88.28,1.79.57,2.69.91.82.31,1.41.65,1.76.85.22.13.51.3.83.43l.23.09c2.36.91,4.79,1.86,6.3,2.53l.09.04c37.46,17.13,68.78,50.2,88.19,93.1.45.98.68,1.85.88,2.55.14.51.24.87.43,1.31l.1.24.09.25c.06.17.1.24.1.25.25.39.78,1.21,1.18,2.38.42,1.21.92,2.7,1.3,3.9.15.47.33.98.5,1.48.28.81.55,1.61.77,2.31.14.46.32.98.5,1.47.28.79.56,1.61.79,2.4.32,1.13.6,2.29.87,3.41.14.59.28,1.17.42,1.73l.25.96c.36,1.4.76,2.94,1.04,4.2.13.6.31,1.26.49,1.91.28,1.07.58,2.17.79,3.23.12.6.25,1.24.39,1.89.31,1.49.63,3.04.88,4.46.13.75.32,1.59.49,2.41.29,1.32.58,2.68.77,3.98l.32,2.09c.33,2.2.71,4.69.95,6.83l.17,1.63c.45,4.48.97,9.57,1.12,13.81.24,5.71.24,12.15,0,19.06v.17c-.16,2.94-.54,6.26-.91,9.46-.13,1.15-.26,2.26-.37,3.3-.19,1.93-.54,4.14-.87,6.27-.14.93-.28,1.83-.4,2.66-.25,1.83-.63,4-.97,5.92l-.3,1.71c-.15.84-.37,1.65-.65,2.67-.22.79-.49,1.78-.61,2.41l-.03.13c-.15.71-.29,1.46-.43,2.21-.26,1.36-.53,2.77-.84,4.14-.22.95-.48,1.99-.75,3.03-.17.67-.35,1.34-.5,1.98-.39,1.61-.85,3.53-1.28,5.13-.18.66-.41,1.3-.67,2.05-.21.58-.46,1.3-.6,1.79-.24.83-.52,1.65-.8,2.44-.17.48-.34.97-.48,1.41-.21.7-.49,1.5-.76,2.31-.17.5-.34,1-.5,1.48-.39,1.2-.87,2.64-1.28,3.85-.15.44-.3.91-.45,1.37-.27.85-.55,1.7-.83,2.47-.17.47-.32.95-.47,1.42-.23.72-.48,1.54-.8,2.38-.17.45-.3.88-.43,1.31-.23.74-.49,1.58-.84,2.49-.28.7-.56,1.2-.75,1.54-.13.23-.37.65-.5.98-.15.38-.28.83-.44,1.37-.21.7-.45,1.5-.81,2.38-.23.56-.47,1-.69,1.42-.17.32-.43.79-.57,1.13-55.02,127.5-176.69,207.15-284.03,277.43l-2.5,1.63h-7.08Z"/>
      <path class="cls-1" d="M203.43,22.29c3.01.31,6.77.78,9.79,1.22,1.74.26,4.2.88,6.12,1.22s4.21.82,6.12,1.22c1.41.3,3.36.85,4.9,1.22s3.4.81,4.9,1.22c.7.19,2.38.83,3.67,1.22,1.08.32,2.5.84,3.67,1.22s2.51.83,3.67,1.22,2.55.81,3.67,1.22c1.27.47,2.57.79,3.67,1.22,1.59.62,2.85.88,3.67,1.22,23.12,9.64,46.95,26.29,66.71,41.62,21.25-15.08,42.63-29.99,66.71-40.39,1.3-.52,2.32-1.17,2.45-1.22,1.11-.43,2.42-.77,3.67-1.22,1.12-.41,2.49-.82,3.67-1.22s2.57-.88,3.67-1.22c1.19-.37,2.62-.92,3.67-1.22,1.36-.4,2.98-1.03,3.67-1.22,1.53-.42,3.33-.84,4.9-1.22,1.58-.39,3.48-1.18,3.67-1.22,1.88-.39,4.3-.91,6.12-1.22,1.94-.33,4.4-.98,6.12-1.22,2.32-.32,5.24-1,7.34-1.22,3.29-.44,7.8-1.02,11.02-1.22,8.74-.61,21.89-.67,30.6,0,2.86.21,6.81.84,9.79,1.22,2.15.27,5.09.84,7.34,1.22.76.13,3.26.89,4.9,1.22,1.36.28,3.44.85,4.9,1.22,1.54.39,3.48.79,4.9,1.22,1.08.33,2.55.84,3.67,1.22,1.18.4,2.58.81,3.67,1.22.13.05,1.08.69,2.45,1.22,1.66.64,4.63,1.79,6.12,2.45,37.9,17.33,66.32,50.74,83.23,88.13.31.69.46,1.9,1.22,3.67.59,1.6,1.18,2.32,1.22,2.45.39,1.14.86,2.54,1.22,3.67.38,1.2.89,2.57,1.22,3.67.37,1.21.96,2.72,1.22,3.67.43,1.51.82,3.32,1.22,4.9s.89,3.42,1.22,4.9c.35,1.56.95,3.51,1.22,4.9.39,1.94.89,4.25,1.22,6.12s.96,4.36,1.22,6.12c.4,2.68.93,5.96,1.22,8.57.45,4.5,1.07,10.29,1.22,14.69.25,6,.21,12.35,0,18.36-.19,3.67-.83,8.45-1.22,12.24-.26,2.54-.84,5.91-1.22,8.57-.31,2.23-.83,5.05-1.22,7.34-.14.83-.88,3.11-1.22,4.9-.41,1.98-.78,4.2-1.22,6.12-.35,1.52-.84,3.3-1.22,4.9s-.81,3.37-1.22,4.9c-.17.64-.83,2.29-1.22,3.67-.3,1.04-.86,2.48-1.22,3.67-.34,1.11-.84,2.48-1.22,3.67s-.83,2.51-1.22,3.67-.81,2.53-1.22,3.67c-.46,1.26-.8,2.54-1.22,3.67-.49,1.3-.79,2.55-1.22,3.67-.05.13-.71,1.17-1.22,2.45-.6,1.54-.85,2.75-1.22,3.67-.09.22-.74,1.3-1.22,2.45-53.38,123.7-171.77,201.9-280.3,272.96h-1.22c-109.57-68.68-224.24-148.35-280.3-269.29-.49-1.13-1.1-2.15-1.22-2.45-.35-.83-.55-2-1.22-3.67-.48-1.09-1.1-2.14-1.22-2.45-.35-.82-.56-2.02-1.22-3.67-.56-1.47-1.18-2.32-1.22-2.45-.42-1.14-.79-2.44-1.22-3.67-.41-1.16-.82-2.48-1.22-3.67s-.86-2.53-1.22-3.67c-.38-1.2-.89-2.57-1.22-3.67-.37-1.22-.92-2.61-1.22-3.67-.45-1.54-.77-3.24-1.22-4.9-.39-1.51-1.14-3.33-1.22-3.67-.37-1.56-.92-3.46-1.22-4.9-.36-1.68-1.04-3.9-1.22-4.9-.37-1.95-.93-4.3-1.22-6.12-.32-1.97-.98-4.39-1.22-6.12-.33-2.35-.98-5.19-1.22-7.34-.33-2.64-1.04-6.15-1.22-8.57-.77-9.83-.77-25.67,0-35.5.18-2.4.89-5.96,1.22-8.57.23-2.11.9-5.02,1.22-7.34.24-1.72.89-4.18,1.22-6.12.31-1.81.83-4.27,1.22-6.12.04-.19.84-2.15,1.22-3.67.4-1.57.8-3.39,1.22-4.9.25-.88.85-2.44,1.22-3.67.33-1.09.84-2.49,1.22-3.67s.83-2.54,1.22-3.67c.43-1.22.81-2.57,1.22-3.67.05-.13.69-1.11,1.22-2.45.76-1.77.92-3.01,1.22-3.67,17.82-38.86,46.81-70.91,85.68-89.35,1.3-.52,2.32-1.18,2.45-1.22,1.08-.41,2.49-.82,3.67-1.22s2.57-.88,3.67-1.22c1.22-.38,2.97-1.03,3.67-1.22,1.36-.38,3.31-1.14,3.67-1.22,1.51-.36,3.52-.95,4.9-1.22,1.68-.34,4.1-1.09,4.9-1.22,1.89-.32,4.46-1.01,6.12-1.22,2.65-.34,6.1-1.02,8.57-1.22,11.12-.94,27.87-.63,39.17,0Z"/>
    </g>
  </g>
</svg>