<svg width="30" height="39" viewBox="0 0 30 39" fill="none" xmlns="http://www.w3.org/2000/svg">
<path d="M29.1877 13.0961C29.1987 13.2382 29.2096 13.2468 29.2425 13.2984C29.2973 13.9528 29.3411 14.4564 29.3849 14.9558C29.4287 15.4594 29.4725 15.9631 29.5218 16.639C29.3959 16.1525 29.2918 15.7565 29.1932 15.3432C29.0946 14.9299 28.9796 14.5081 28.8208 13.9441C28.8043 13.7806 29.1494 13.419 29.1877 13.0918V13.0961Z" fill="#E4007F"/>
<path d="M8.38025 10.1335C7.94755 9.95698 7.36697 9.77618 6.75353 9.56955C6.14009 9.36292 5.49926 9.13046 4.93512 8.82051C4.37097 8.51057 3.88898 8.12314 3.57678 7.58503C3.26459 7.04263 3.12218 6.34094 3.27554 5.4025C3.36865 4.82565 3.63703 4.28755 4.02591 3.81402C4.41479 3.34049 4.92416 2.93154 5.48831 2.61298C6.04698 2.29442 6.65494 2.06196 7.22457 1.92421C7.79419 1.78646 8.33095 1.74341 8.74721 1.78215C8.90057 3.34049 8.86771 3.8872 8.67053 4.08522C8.47336 4.28325 8.13377 4.16702 7.82705 4.55445C7.12598 5.43263 6.93975 6.51744 6.98357 7.26217C7.02739 8.00691 7.27934 8.42447 7.5039 8.02843C7.55867 7.93372 7.48747 7.48602 7.53676 6.9264C7.58606 6.36247 7.75585 5.678 8.31452 5.13129C8.87319 4.58458 9.82621 4.17132 11.316 4.29616C12.3019 4.37795 13.1235 4.63624 13.9122 4.96341C14.7009 5.28627 15.4348 5.69953 16.0921 6.13431C16.7493 6.5691 17.3354 7.02971 17.8338 7.45589C18.3322 7.88206 18.743 8.2695 19.0497 8.54501C19.351 8.82051 19.5482 8.97979 19.6248 8.96257C19.9151 8.88939 19.5974 7.83902 19.7344 7.69265C19.7672 7.65822 20.6655 8.50196 20.6381 7.97247C20.6272 7.71418 20.3095 7.56781 20.0301 7.30953C19.7508 7.05124 19.5098 6.67241 19.6687 5.97073C19.8439 5.17004 20.2657 4.82565 20.7586 4.79552C21.257 4.76538 21.8267 5.0495 22.347 5.53594C22.8673 6.02239 23.3329 6.71116 23.6396 7.48602C23.9463 8.26089 24.1051 9.12616 23.9792 9.94407C23.9025 10.4563 23.6012 10.9256 23.1521 11.3216C22.703 11.7176 22.095 12.0405 21.4378 12.273C20.775 12.5054 20.063 12.6432 19.4277 12.6647C18.7868 12.6862 18.2227 12.6001 17.8338 12.3418C17.4449 12.0879 17.2258 11.666 17.2587 11.0031C17.2751 10.7189 17.8064 10.6716 17.7024 10.1636C17.6312 9.82353 17.2478 9.82353 17.0287 10.2024C16.8096 10.5812 16.7439 11.3345 17.2587 12.4538C16.3112 12.4753 15.9278 12.5657 15.9825 12.7207C16.0373 12.8756 16.5193 13.0909 17.4121 13.4525C17.3463 14.2101 17.3025 14.5803 17.2039 15.282C16.6398 15.0582 16.0702 14.9376 15.506 14.8817C14.9419 14.8257 14.3887 14.83 13.8574 14.8472C13.3261 14.8645 12.8113 14.8817 12.3019 14.9333C12.8934 14.2274 13.3316 13.7366 13.6383 13.0177C13.945 12.2988 14.1422 11.5368 14.2737 10.9428C14.4051 10.3487 14.4708 9.91824 14.5201 9.84506C14.8707 9.28974 16.0756 10.5381 15.8675 9.58677C15.7908 9.23808 14.427 8.83343 14.2901 8.87648C14.186 8.91092 14.06 9.66426 13.9122 10.4348C13.7643 11.2054 13.5781 11.9889 13.4028 12.161C12.625 11.5067 12.0664 10.8911 11.7158 10.3659C11.3653 9.84075 11.2119 9.38875 11.1298 9.05297C11.0531 8.71289 11.0531 8.48904 11.0148 8.41586C10.8395 8.10161 10.6697 8.12313 10.6259 8.41586C10.5766 8.70859 10.6533 9.26821 10.96 10.0259C11.2174 10.6759 11.7651 11.2656 12.2416 11.7693C12.7127 12.273 13.1125 12.6819 13.1125 12.9273C12.7729 13.6462 12.2909 14.1628 11.7761 14.5373C11.2612 14.9118 10.7135 15.3983 10.1439 15.5834C9.57426 15.7685 8.98821 15.79 8.38572 15.6522C7.78871 15.5102 7.17527 15.2088 6.58922 14.7353C5.99768 14.2575 5.44449 13.5989 4.90225 12.9747C4.91321 12.8713 5.34043 12.8197 5.94291 12.7508C6.5454 12.6819 7.31768 12.6044 7.98589 12.4107C8.6541 12.217 9.21277 11.8985 9.36065 11.3001C9.68928 9.99573 8.93344 10.3573 8.40215 10.1378L8.38025 10.1335Z" fill="#E4007F"/>
<path d="M18.94 27.1212C19.0112 26.85 19.1098 26.3635 19.1646 25.791C19.2194 25.2184 19.2358 24.5598 19.1098 23.9959C18.9839 23.4319 18.7155 22.967 18.2225 22.8336C17.9925 22.769 17.4941 23.6084 17.0449 23.2641C17.1874 23.0316 18.228 22.7001 18.2499 22.4289C18.3485 21.215 17.1819 22.4806 16.9245 22.261C16.7875 22.1448 16.5575 21.0385 16.2617 20.7199C15.9769 20.4186 15.4347 20.3712 14.9362 20.3798C14.4378 20.3884 13.9887 20.4573 13.8682 20.3798C13.8189 20.3497 13.5231 19.9063 13.1288 19.2907C12.7344 18.6751 12.2634 17.883 11.9074 17.2804C11.5514 16.6777 11.3213 16.174 11.3871 16.0664C12.0772 15.9028 12.7673 15.7522 13.4191 15.6445C14.0654 15.5326 14.7336 15.4766 15.4073 15.5584C16.081 15.6402 16.7547 15.7952 17.4667 16.0965C17.7625 17.0092 18.1787 18.1413 18.6881 18.9463C19.1975 19.7513 19.7945 20.4874 20.4189 21.0729C21.0433 21.6584 21.7005 22.0931 22.3304 22.3514C22.9603 22.6097 23.5737 22.6915 24.116 22.5581C24.6582 22.4246 25.1347 22.1319 25.5291 21.6584C25.9234 21.1848 26.263 20.4401 26.4711 19.6136C27.2051 20.0053 27.9938 20.1861 28.3936 19.7685C28.6839 19.8503 28.9906 20.2378 29.2097 20.7931C29.4288 21.3484 29.5657 22.063 29.5876 22.7647C29.6095 23.4707 29.5712 24.2585 29.3631 25.3734C29.2645 25.9115 29.0454 26.4539 28.6948 26.8715C28.3388 27.289 27.8404 27.5732 27.2872 27.6506C26.734 27.7281 26.137 27.6033 25.666 27.2159C25.1676 26.6347 24.6034 26.2042 24.0009 25.8642C23.3984 25.5241 22.7631 25.2787 22.1277 25.0548C21.4924 24.831 20.8625 24.633 20.2765 24.3919C19.8 24.3919 19.5261 25.1151 19.3508 25.7953C19.1756 26.4754 19.0824 27.1125 18.9346 27.1169L18.94 27.1212Z" fill="#E4007F"/>
<path d="M24.5652 8.98422C24.4009 8.92395 24.2913 8.42459 24.0832 7.75304C23.8751 7.0858 23.5848 6.25497 23.0261 5.51024C22.6865 5.06254 22.2812 4.65358 21.865 4.38668C21.4487 4.11978 21.027 3.99494 20.6655 4.11978C20.3259 3.32339 19.8768 2.80682 19.4769 2.41508C19.0826 2.02334 18.743 1.75214 18.6608 1.47233C18.5787 1.19251 18.7594 0.895481 19.4221 0.546791C19.7836 0.35738 20.3314 0.279894 20.9722 0.310027C21.613 0.340161 22.3415 0.477915 23.0645 0.701765C23.7874 0.925615 24.5049 1.24417 25.1403 1.61438C25.7756 1.9846 26.3288 2.41508 26.767 2.84986C27.2052 3.28465 27.5229 3.71944 27.731 4.09395C28.1308 4.81716 28.3389 5.57481 28.454 6.24205C28.5635 6.9136 28.5854 7.49906 28.4923 7.84344C28.3992 8.18352 28.1856 8.27823 27.6707 7.8908C26.9204 7.32687 26.2631 6.76294 25.8468 6.20331C25.4306 5.64799 25.2389 5.11419 25.1512 4.70954C25.0636 4.30489 25.0855 4.02077 25.0472 3.93037C24.6857 3.09954 24.7295 4.36085 24.7898 4.69663C24.8719 5.16155 25.1239 5.63938 25.3375 6.10861C25.5511 6.57783 25.7209 7.04275 25.6661 7.50767C25.6113 7.97259 25.3484 8.4332 24.5652 8.97561V8.98422Z" fill="#E4007F"/>
<path d="M1.97722 14.3735C1.68693 13.8139 1.4788 13.2887 1.33092 12.8582C1.18303 12.4277 1.10088 11.9714 1.11731 11.4936C1.13374 11.0114 1.24328 10.5078 1.51166 9.98689C1.87863 9.2723 2.30037 8.93652 2.76593 8.86334C3.23149 8.79016 3.75182 8.96665 4.28858 9.22494C4.82534 9.48323 5.38401 9.81901 5.95363 10.0472C6.28226 10.1806 6.67114 10.2667 7.06549 10.3657C7.45985 10.4647 7.86516 10.5723 8.22117 10.7359C8.41287 10.8263 8.60457 10.6584 8.78532 11.0502C8.21022 11.7217 7.43794 11.9542 6.69852 12.0618C5.95911 12.1651 5.25256 12.1393 4.77057 12.1953C4.28858 12.2512 4.03663 12.3933 4.1626 12.7979C4.29953 13.2327 4.62816 13.7407 5.11015 14.3046C5.59214 14.8685 6.22749 15.3894 6.90666 15.8027C7.58582 16.216 8.31976 16.513 8.99345 16.6206C9.66714 16.7325 10.2861 16.655 10.7735 16.2762C11.2007 17.163 11.7101 17.9293 12.1483 18.5922C12.5865 19.2551 12.9534 19.7846 13.1342 20.1678C13.3149 20.5552 13.3094 20.7963 13.0027 20.891C12.6905 20.99 12.0716 20.9383 10.9981 20.7704C10.5325 20.6973 10.0286 20.5638 9.50282 20.3787C8.97154 20.1936 8.41835 19.9525 7.8542 19.6727C7.29006 19.3886 6.72043 19.0614 6.16176 18.6912C5.60309 18.321 5.05538 17.9164 4.53505 17.4687C4.0202 17.0253 3.53273 16.5345 3.10004 16.0308C2.66734 15.5229 2.28942 14.9762 1.97722 14.3735Z" fill="#E4007F"/>
<path d="M24.3678 10.3199C24.7019 9.76885 25.1456 9.53639 25.4907 9.14465C25.8302 8.75292 26.0658 8.18038 26.0767 7.06543C26.4492 7.55187 26.8435 7.81877 27.1941 8.06415C27.5501 8.31382 27.8623 8.54629 28.1252 8.94663C28.3881 9.34698 28.5907 9.9023 28.7715 10.8192C29.1603 12.821 28.9303 13.1223 28.399 12.963C27.8677 12.8037 26.964 12.1838 26.9421 12.3517C26.8819 12.8554 27.2762 13.1912 27.6651 13.415C28.054 13.6389 28.4155 13.7637 28.514 13.8068C29.1494 15.3651 29.3137 16.3896 29.3685 17.1172C29.4233 17.8447 29.3356 18.2795 29.122 18.6109C28.9084 18.9424 28.5579 19.1662 28.1964 19.4547C28.0101 19.205 27.9116 18.8089 27.8404 18.3354C27.7692 17.8619 27.7199 17.3066 27.6432 16.7556C27.5665 16.2002 27.4515 15.6492 27.2488 15.1886C26.9038 14.9088 26.5313 14.6892 26.137 14.4525C25.7426 14.2157 25.3209 13.9574 24.8936 13.5958C24.4664 13.2342 24.0283 12.7693 23.5901 12.1107C23.9242 11.5769 24.2693 10.4834 24.3733 10.3156L24.3678 10.3199Z" fill="#E4007F"/>
<path d="M19.0879 7.61116C18.4361 7.05584 17.7844 6.55218 17.149 6.10878C16.5137 5.66539 15.8893 5.27795 15.2703 4.94218C14.6514 4.6064 14.0325 4.31798 13.43 4.08983C12.8275 3.85737 12.236 3.67226 11.5733 3.55603C11.1351 3.47854 10.3135 3.71961 9.7439 3.65504C9.17427 3.59047 8.82921 3.15999 9.47552 1.80828C9.67269 1.39502 10.1711 0.973144 10.79 0.658893C11.4089 0.344642 12.1429 0.146622 12.7509 0.0734399C13.3588 0.00025812 13.9394 0.0605247 14.3009 0.292984C14.1092 0.998973 14.0325 1.3778 13.9011 2.16558C14.2845 2.20862 15.0403 2.7252 15.6209 3.06528C16.2015 3.40536 16.5958 3.55603 16.2398 2.85435C16.0919 2.56592 15.5332 2.41526 15.0896 2.11822C14.6514 1.8255 14.3118 1.36058 14.6843 0.551273C14.9034 0.0691345 15.7578 -0.0427905 16.5903 0.013172C17.4229 0.0691345 18.2335 0.29729 18.3485 0.426434C18.5457 0.650284 17.9377 1.15825 18.0856 1.76523C18.1787 2.15266 19.1536 2.66063 19.4932 3.07389C19.9807 3.66796 20.0793 3.98651 19.9971 4.25341C19.915 4.52461 19.6466 4.75277 19.4111 5.21769C19.181 5.68261 18.9838 6.38429 19.0715 7.61977L19.0879 7.61116Z" fill="#E4007F"/>
<path d="M4.3765 23.7928C4.36007 23.754 4.33269 23.7024 4.32721 23.6679C4.19576 23.1341 4.51891 23.3924 4.37103 23.1557C4.33269 23.0997 3.4892 22.6047 3.45086 22.553C3.08937 22.0622 3.74115 21.748 2.28971 20.9215C2.10896 20.5943 2.48141 20.1595 2.56904 20.082C2.97435 20.6244 3.6097 21.1238 4.34364 21.5887C5.07758 22.0536 5.92106 22.497 6.73168 22.8931C7.54229 23.2891 8.31457 23.6421 8.91158 23.9176C9.50859 24.1974 9.93033 24.3998 10.0399 24.4988C10.1385 24.5849 10.4123 25.0885 10.7245 25.6094C11.0367 26.1303 11.3927 26.6641 11.6228 26.8664C11.6556 27.0257 11.2722 26.9568 10.6643 26.7545C10.0563 26.5522 9.2183 26.2121 8.35291 25.8376C7.48752 25.463 6.59475 25.0541 5.87176 24.6882C5.14878 24.3223 4.59559 24.008 4.38198 23.7971L4.3765 23.7928Z" fill="#E4007F"/>
<path d="M26.3179 31.7485C26.8273 31.6624 27.1833 31.0941 27.6708 32.2478C27.9556 31.671 28.202 32.4028 28.2952 32.3554C27.8515 30.4699 28.4978 31.8087 28.6457 31.7571C28.7114 31.7313 28.695 30.8789 28.925 30.7368C28.925 30.655 28.3499 29.8501 28.3609 30.2891C28.0322 29.2302 27.6324 28.946 27.1669 28.8169C26.7068 28.6834 26.181 28.6834 25.6223 28.1238C25.5621 28.1152 25.2827 28.7007 24.8665 29.058C25.1677 28.5801 25.3156 28.3305 25.6113 27.8096C26.5041 28.7566 27.2326 28.5758 27.8351 28.3003C28.4376 28.0248 28.9141 27.6589 29.2701 28.3175C29.4727 28.6921 29.5659 29.2603 29.6042 29.8716C29.648 30.4829 29.6371 31.1372 29.5878 31.7011C29.5385 32.265 29.4508 32.7429 29.281 33.0098C28.8483 33.6856 28.2787 33.5264 27.7365 33.1389C27.1942 32.7515 26.6903 32.1144 26.3234 31.7485H26.3179Z" fill="#E4007F"/>
<path d="M4.92969 24.6889C5.64172 25.1151 6.4359 25.4724 7.1808 25.7995C7.92569 26.1267 8.62676 26.428 9.13614 26.7337C9.64551 27.0436 9.95223 27.3665 9.95771 27.7195C9.95771 27.8228 9.70576 27.5042 9.61813 27.5645C9.34975 27.7582 10.3575 28.4082 11.2284 29.0453C12.0993 29.6825 12.8168 30.3067 12.165 30.3971C11.9897 30.4229 11.6994 30.3368 11.327 30.156C10.9546 29.9795 10.4945 29.7126 9.97962 29.3725C9.46477 29.0324 8.89514 28.6192 8.30361 28.1456C7.71756 27.6721 7.10959 27.1469 6.52902 26.5658C5.94844 25.9889 5.40072 25.3647 4.92969 24.6846V24.6889Z" fill="#E4007F"/>
<path d="M23.8366 36.1483C23.267 35.735 22.6864 35.2916 22.1058 34.8569C21.5252 34.4221 20.9501 33.9916 20.3915 33.6042C20.5229 32.8293 20.7694 32.4117 21.0926 32.2955C21.4157 32.175 21.8265 32.3471 22.3359 32.6614C22.8452 32.9713 23.4587 33.4234 24.1817 33.8538C24.4884 34.1293 24.1378 34.5426 24.5212 35.4294C24.6801 35.7953 25.0744 36.2172 25.4798 36.6046C25.8851 36.992 26.2958 37.3407 26.5423 37.5603C26.5423 37.5732 26.8381 37.7196 26.6847 37.8272C26.4656 37.9864 25.9672 37.7066 25.3976 37.3106C24.828 36.9146 24.1981 36.4109 23.8366 36.1526V36.1483Z" fill="#E4007F"/>
<path d="M26.9095 37.4902C28.5636 35.9792 27.9283 37.0081 28.0707 37.4386C28.1474 37.6667 28.6732 37.7743 28.3884 36.4786C29.3633 35.5574 28.6075 35.4799 28.5527 35.4024C28.476 35.2862 28.5253 33.8871 27.879 34.0421C27.7914 34.0636 27.5942 34.86 26.926 34.903C27.3203 34.4941 27.512 34.2702 27.868 33.7881C28.591 34.1497 29.1004 33.7407 29.4071 34.6577C29.5879 35.2087 29.5495 35.9061 29.4729 36.5647C29.3962 37.2233 29.2483 37.8389 28.9142 38.1359C28.5746 38.433 28.0269 38.4071 27.271 37.8949C27.2546 37.882 27.03 37.5935 26.9095 37.4945V37.4902Z" fill="#E4007F"/>
<path d="M26.6685 37.3491C26.5534 37.2501 26.1865 36.8885 25.8086 36.5054C25.4306 36.1223 25.0472 35.7219 24.976 35.5712C24.4886 34.5467 24.6419 34.3616 25.0965 34.4606C25.5511 34.5639 26.2905 34.9384 26.9314 34.8954C27.5941 34.8523 27.7968 34.0516 27.8844 34.0344C28.5307 33.8795 28.4814 35.2785 28.5581 35.3947C28.6129 35.4722 29.3687 35.5497 28.3938 36.4709C28.6731 37.7667 28.1528 37.6591 28.0761 37.4309C27.9337 37.0004 28.569 35.9716 26.9149 37.4826C26.8383 37.4223 26.7451 37.4051 26.6739 37.3448L26.6685 37.3491Z" fill="#E4007F"/>
<path d="M15.9002 32.5877C15.6209 31.8043 16.5794 32.2649 17.1052 32.648C17.5379 32.9623 17.7789 33.6252 18.3102 34.1246C18.8853 34.667 19.3673 34.8262 19.8383 35.007C20.3093 35.1878 20.742 35.3859 20.9775 35.8164C20.8735 35.8336 20.2381 35.5581 19.5973 35.261C18.9565 34.9683 18.1404 34.5421 17.4174 34.0686C16.6999 33.5951 16.0755 33.0742 15.9002 32.5834V32.5877Z" fill="#E4007F"/>
<path d="M12.5428 30.8822C13.0358 30.9855 12.8003 30.2752 12.8386 30.2666C13.7861 30.8478 14.3941 31.1319 14.7994 31.3815C15.2047 31.6312 15.3964 31.8508 15.495 32.2726C15.5169 32.3544 15.61 32.7333 15.5991 32.7419C15.5388 32.7935 14.9035 32.419 14.2079 32.0057C13.5123 31.5925 12.751 31.1319 12.5264 31.0501C12.2416 30.7444 12.5483 30.8994 12.5374 30.8865L12.5428 30.8822Z" fill="#E4007F"/>
<path d="M29.785 22.3602C29.7247 21.8006 29.5714 21.1936 29.4071 20.6814C29.2428 20.1691 29.0675 19.786 29.062 19.7042C29.3633 18.9853 29.4454 18.671 29.6152 17.7627C29.659 18.417 29.6919 18.9551 29.7193 19.4459C29.7467 19.9366 29.7631 20.3843 29.774 20.8535C29.785 21.3228 29.7959 21.8092 29.785 22.3602Z" fill="#E4007F"/>
<path d="M29.3797 27.7671C29.3523 27.7068 29.2482 27.7542 29.1003 27.2893C29.1989 27.1816 29.2975 26.9707 29.3578 26.7512C29.5769 25.9548 29.6042 25.5286 29.6261 25.7783C29.6481 26.0279 29.6426 26.9793 29.6645 28.5979C29.659 28.6625 29.4125 27.8575 29.3742 27.7671H29.3797Z" fill="#E4007F"/>
<path d="M29.4452 34.305C29.3795 34.1414 29.3192 34.0381 29.2754 33.6679C29.4561 33.3321 29.5164 33.1943 29.6424 32.7725C29.6369 33.6033 29.6314 33.9993 29.6095 34.7441C29.5712 34.4599 29.5 34.4384 29.4452 34.3093V34.305Z" fill="#E4007F"/>
<path d="M28.7825 10.2505C28.662 9.67796 28.3772 8.87727 28.3717 8.80839C28.3717 8.68355 28.7661 8.02492 28.7825 10.2505Z" fill="#E4007F"/>
<path d="M17.0451 23.2634C17.4887 23.6035 17.9871 22.7683 18.2227 22.8329C18.7101 22.9664 18.984 23.4313 19.11 23.9952C19.2359 24.5591 19.225 25.2178 19.1647 25.7903C19.11 26.3629 19.0059 26.8536 18.9402 27.1205C18.5787 26.9397 18.2062 26.8966 17.8612 26.7718C17.5161 26.647 17.2039 26.449 16.9136 25.9022C16.7931 26.1519 16.3276 26.8235 16.1687 26.7675C16.0044 26.7115 15.7086 26.3801 15.38 25.8979C15.0514 25.4158 14.6844 24.7787 14.4051 24.1157C14.1257 23.4528 13.9286 22.7597 13.9231 22.1958C13.9176 21.6319 14.1038 21.2014 14.5803 21.0809C15.5991 20.8226 16.0427 21.2358 16.3056 21.7782C16.574 22.3206 16.6781 22.975 17.0451 23.2548V23.2634Z" fill="#E4007F"/>
<path d="M24.8609 29.0573C25.2826 28.6957 25.562 28.1145 25.6167 28.1231C26.1754 28.6871 26.6957 28.6871 27.1613 28.8162C27.6214 28.9497 28.0267 29.2295 28.3553 30.2885C28.3444 29.8494 28.9249 30.6544 28.9195 30.7362C28.6839 30.8782 28.7059 31.7349 28.6401 31.7564C28.4922 31.8081 27.8459 30.4693 28.2896 32.3548C28.202 32.4021 27.95 31.6703 27.6652 32.2471C27.1777 31.0935 26.8272 31.6617 26.3123 31.7478C26.0878 31.5239 25.8906 31.1236 25.5948 30.9643C25.3374 30.8266 24.6035 30.7921 24.1982 30.5769C23.7874 30.3616 23.7381 30.0216 24.8609 29.0573Z" fill="#E4007F"/>
<path d="M1.82394 15.0619C1.88966 15.1093 2.33331 15.7507 2.87007 16.461C3.40684 17.1713 4.03123 17.9117 4.29961 18.0882C3.78476 19.5174 3.42327 19.8532 3.11655 19.9177C2.80983 19.9866 2.58526 19.7498 2.53597 19.7972C2.47024 19.8488 2.56883 20.0727 2.55788 20.0813C2.47024 20.1631 2.0978 20.5979 2.27854 20.9207C3.72999 21.7473 3.07821 22.0615 3.4397 22.5523C3.47804 22.6082 4.327 23.099 4.35986 23.1549C4.51322 23.396 4.19007 23.1334 4.31604 23.6672C3.91073 23.5467 3.35754 23.1765 2.78792 22.6814C2.21829 22.1864 1.62676 21.5622 1.15025 20.9121C0.673738 20.2621 0.306769 19.5863 0.142454 18.975C-0.0382919 18.312 -0.038292 17.606 0.0931596 16.9517C0.219134 16.2974 0.482037 15.7033 0.794235 15.3288C1.10643 14.9586 1.4734 14.8165 1.81298 15.0576L1.82394 15.0619Z" fill="#E4007F"/>
<path d="M1.12298 18.3807C0.712194 18.6303 0.77792 17.7952 0.93128 17.778C1.15037 17.7565 1.29825 18.2731 1.12298 18.3807Z" fill="#E4007F"/>
<path d="M21.0433 35.5238C20.9337 35.4463 20.5941 35.0804 20.4572 34.9298C20.0245 34.7576 19.4877 34.5725 19.0167 34.2926C18.5457 34.0128 18.0911 33.6211 17.8446 32.9883C19.2303 33.5393 19.7835 33.8665 20.0848 34.142C20.386 34.4175 20.4024 34.6069 20.7804 34.9814C21.4102 35.6056 22.073 36.0705 22.1058 36.2728C21.8265 36.148 21.3171 35.7089 21.0433 35.5195V35.5238Z" fill="#E4007F"/>
<path d="M22.5439 36.0875C22.2427 35.9067 21.8538 35.6139 21.4923 35.2782C21.1308 34.9424 20.7912 34.5679 20.5776 34.1934C21.1856 34.6023 21.6621 34.9381 22.1386 35.2782C22.6151 35.6182 23.0916 35.9669 23.7215 36.4448C23.7215 36.4749 24.3131 36.8882 23.5408 36.6084C23.3765 36.5481 22.7575 36.2166 22.5494 36.0918L22.5439 36.0875Z" fill="#E4007F"/>
<path d="M22.7356 21.6963C22.3632 21.5758 21.9414 21.3519 21.5142 21.0506C21.0815 20.7449 20.6379 20.3532 20.2161 19.9529C19.7944 19.5482 19.3946 19.0919 19.055 18.5839C18.7154 18.076 18.4306 17.5206 18.2334 16.918C17.8226 15.6524 17.6473 15.0368 17.6638 14.4599C17.6802 13.8831 17.8938 13.5215 18.2827 13.3708C18.6716 13.2158 19.2467 13.2675 19.9477 13.5C20.2928 14.4771 20.7145 15.1573 21.0596 15.6308C21.4047 16.1087 21.6785 16.3756 21.7059 16.4832C21.7223 16.5435 21.7059 17.2236 21.7278 17.7488C21.7497 18.274 21.8374 18.8379 22.1222 18.3041C22.3522 17.865 22.2372 17.5809 22.1824 17.3657C22.1277 17.1461 22.1441 17.0773 22.637 17.3355C23.13 17.5938 24.1487 18.1879 25.759 19.333C25.9233 19.5224 25.7919 19.9012 25.5783 20.3747C25.3646 20.8483 25.0634 21.283 24.8827 21.4208C24.45 21.7437 23.3271 21.89 22.7356 21.7006V21.6963Z" fill="#E4007F"/>
<path d="M17.0614 29.9829C16.6397 29.9055 16.1851 29.7634 15.714 29.5568C15.243 29.3501 14.7555 29.0789 14.2516 28.7432C13.7477 28.4074 13.2438 28.0156 12.7618 27.5636C12.2798 27.1116 11.8198 26.5994 11.4199 26.0182C11.0201 25.4371 10.675 24.7913 10.434 24.0595C10.1931 23.3277 10.0506 22.5098 10.0671 21.58C10.7572 21.5369 11.2775 21.5111 11.7979 21.4896C12.3127 21.468 12.8495 21.4594 13.5013 21.4336C13.4903 23.0178 13.7806 23.883 14.0435 24.4297C14.3064 24.9765 14.5638 25.1831 14.5803 25.2778C14.5967 25.3983 14.4324 25.7384 14.3612 26.2119C14.29 26.6855 14.3283 27.2752 14.7062 27.9252C15.0841 28.5753 15.8071 29.2726 17.0669 29.9916L17.0614 29.9829Z" fill="#E4007F"/>
<path d="M17.5544 32.4241C17.3024 32.3078 16.8204 32.0668 16.218 31.7439C15.6155 31.4211 14.887 31.0121 14.1366 30.5816C13.3863 30.1468 12.625 29.6905 11.9896 29.26C11.3543 28.8339 10.8394 28.4335 10.5984 28.1193C9.93567 27.254 10.1109 27.1249 10.582 27.2325C11.053 27.3401 11.8143 27.6845 12.3456 27.7103C13.0741 28.4335 13.7752 28.9673 14.4434 29.3849C15.1116 29.7981 15.736 30.0866 16.3549 30.3018C16.9738 30.517 17.5818 30.6634 18.1733 30.7839C18.7703 30.9088 19.4221 31.0508 20.0958 31.2704C19.5535 31.929 19.5864 33.0784 19.5097 33.0999C19.1975 33.1774 17.8666 32.239 17.5544 32.4241Z" fill="#E4007F"/>
<path d="M26.5587 19.0745C26.2465 18.9497 25.7919 18.7129 25.2387 18.3815C24.6855 18.05 24.0446 17.6324 23.4093 17.146C22.774 16.6595 22.1441 16.1128 21.6292 15.5059C21.1144 14.8989 20.72 14.2316 20.5283 13.4912C21.0541 13.276 21.443 13.1124 21.8264 12.9574C22.2098 12.7981 22.5877 12.6432 23.0807 12.4365C24.0392 13.5816 24.7676 14.223 25.3263 14.6234C25.885 15.0237 26.2793 15.1873 26.5806 15.3896C26.8818 15.5919 27.0899 15.8244 27.2543 16.3668C27.4186 16.9092 27.5555 17.7745 27.6322 19.109C27.5884 19.3802 26.7449 19.1434 26.5587 19.0702V19.0745Z" fill="#E4007F"/>
<path d="M18.4855 30.3273C16.8862 29.8882 17.5928 29.7978 17.412 29.5783C17.3572 29.5137 16.9903 29.3372 16.5302 29.066C16.0756 28.7948 15.5334 28.4246 15.15 27.9597C14.7666 27.4991 14.5365 26.9437 14.7556 26.2722C14.8925 25.8546 15.0952 26.1474 15.4074 26.5348C15.7196 26.9179 16.1304 27.3828 16.7 27.3226C16.8588 26.9093 17.1382 26.9825 17.5161 27.1805C17.894 27.3785 18.3979 27.7057 19.0771 27.8391C19.2962 28.4332 19.4605 28.868 19.6248 29.2942C19.7891 29.7203 19.9589 30.1422 20.1835 30.6846C19.581 30.4608 19.0113 30.4737 18.4855 30.3273Z" fill="#E4007F"/>
<path d="M7.61334 22.5873C6.96156 22.3247 6.3043 22.0449 5.64704 21.7005C4.99526 21.3561 4.34348 20.9515 3.70813 20.4349C3.92174 20.0819 4.09153 19.8064 4.27228 19.5223C4.45302 19.2382 4.63925 18.9541 4.90215 18.5537C5.64704 19.2511 6.26596 19.5998 6.73152 19.8624C7.1916 20.1293 7.49832 20.3187 7.64072 20.6932C7.78313 21.0677 7.74479 21.6403 7.61334 22.5873Z" fill="#E4007F"/>
<path d="M9.76043 23.7543C9.14151 23.4142 8.82931 23.2463 8.20492 22.9191C8.21587 21.8946 8.12824 21.1929 8.24873 20.9131C8.36923 20.6333 8.70334 20.7624 9.63445 21.3263C9.64541 21.8343 9.66184 22.2045 9.67827 22.5704C9.6947 22.9363 9.72209 23.2936 9.76043 23.7543Z" fill="#E4007F"/>
<path d="M17.5544 32.4232C17.8666 32.2424 19.1976 33.1809 19.5098 33.0991C19.5865 33.0819 19.5536 31.9282 20.0958 31.2695C20.2109 31.3083 20.9831 31.2179 20.9996 31.7086C20.9996 31.7861 20.7093 31.8162 20.4245 32.0401C20.1397 32.2639 19.8768 32.6858 19.9151 33.4478C19.4988 33.3057 19.099 33.1378 18.7211 32.9656C18.3432 32.7934 17.9488 32.5997 17.5599 32.4232H17.5544Z" fill="#E4007F"/>
<path d="M25.666 34.1975C25.2388 34.0339 24.724 33.7799 24.1653 33.4528C23.6066 33.1256 23.0096 32.7253 22.44 32.2776C21.8704 31.8299 21.3281 31.3305 20.879 30.7795C20.4244 30.2285 20.0629 29.6301 19.8383 28.9499C19.6138 28.2698 19.5371 27.5121 19.6795 26.6383C19.8274 25.7472 20.2875 25.3942 20.9009 25.3985C21.5144 25.4071 22.2812 25.7687 23.026 26.1863C23.7709 26.6038 24.4939 27.0773 25.0526 27.2926C25.0088 27.6542 24.5487 28.2224 24.0941 28.696C23.6395 29.1695 23.1958 29.5612 23.2177 29.699C23.2287 29.7808 24.0284 31.0249 24.1872 31.1497C24.5268 31.4252 24.8006 31.3822 25.2717 31.5974C25.7372 31.8126 26.4219 32.312 27.3201 33.5216C27.1558 34.3568 26.3342 34.4515 25.6715 34.1975H25.666Z" fill="#E4007F"/>
<path d="M21.5361 30.3789C21.5361 30.3789 21.0486 30.0905 21.0431 29.9785C21.0267 29.7246 21.7497 29.957 21.5361 30.3789Z" fill="#E4007F"/>
</svg>
