<svg width="30" height="39" viewBox="0 0 30 39" fill="none" xmlns="http://www.w3.org/2000/svg">
<path d="M1.91845 26.781C1.74866 26.2558 1.41456 25.5885 1.37621 24.917C1.33787 24.2024 1.41456 23.5523 1.5241 23.0013C1.63364 22.4503 1.79795 21.9467 1.96775 21.5678C2.13754 21.189 2.30733 20.935 2.38949 20.8618C2.45521 20.8016 2.85505 20.836 3.36442 20.8016C3.8738 20.7671 4.50367 20.6638 4.87064 20.328C5.1664 21.2148 5.33619 21.839 5.63196 22.1705C5.9332 22.502 6.34399 22.5708 7.12174 22.6914C7.1327 22.6914 7.07793 23.0315 7.16556 23.0358C7.6366 23.053 8.12954 22.9454 8.62796 22.7344C9.12638 22.5235 9.63028 22.2135 10.1177 21.8046C10.6052 21.3999 11.0762 20.9006 11.5035 20.3065C11.9307 19.7168 12.3196 19.2777 12.6646 18.6965C13.0097 18.1154 13.3054 17.418 13.5464 16.7335C13.8696 16.4537 14.5981 16.2643 15.4306 16.1438C16.2631 16.0232 16.9532 16.1222 17.4736 16.2385C17.9939 16.3547 18.4814 16.4365 18.4868 16.5958C17.7693 18.3091 17.3585 19.5446 17.0463 20.0095C16.7341 20.4744 16.4603 20.4184 16.0769 20.4314C15.6935 20.4443 15.2389 20.5045 14.494 21.189C14.2749 22.5752 13.9846 22.6483 13.7272 22.4632C13.4698 22.2781 13.2069 21.796 13.0261 21.9768C12.325 22.6699 13.6231 23.2467 13.7327 23.3974C13.6341 23.4146 13.1083 23.1735 12.5989 23.35C12.084 23.5222 11.6294 24.1464 11.6514 25.5756C11.487 25.0461 11.0653 24.8352 10.4957 24.8653C9.92605 24.8954 9.20306 25.171 8.45269 25.567C7.70232 25.9587 6.93004 26.471 6.25635 26.9488C5.58266 27.4267 5.00209 27.8701 4.59678 28.1456C3.96143 28.2704 3.47396 28.0896 3.04675 27.7969C2.61953 27.5042 2.25256 27.0909 1.91845 26.7766V26.781Z" fill="#E4007F"/>
<path d="M1.22309 22.8719C1.21213 22.3855 1.1957 21.9076 1.18475 21.4341C1.16831 20.9606 1.15188 20.487 1.12998 20.0049C1.10807 19.5228 1.07521 19.0277 1.03687 18.5068C1.14641 19.2516 1.245 19.8585 1.41479 20.1297C1.5791 20.401 1.75985 20.6119 1.98441 20.7281C1.79271 21.305 1.66126 21.7268 1.53529 22.1358C1.40931 22.5447 1.32715 22.8332 1.22856 22.8676L1.22309 22.8719Z" fill="#E4007F"/>
<path d="M0.916287 17.1C0.87247 16.5964 0.834129 16.1099 0.795789 15.6364C0.757449 15.1586 0.71911 14.6893 0.675293 14.2158C0.730064 14.4095 1.37089 15.051 1.38184 15.1629C1.3928 15.2361 1.19562 16.1659 1.04226 16.9063C0.883424 17.6511 0.905332 17.3368 0.916287 17.1Z" fill="#E4007F"/>
<path d="M1.34898 26.833C1.34351 26.3466 1.68309 27.2161 1.80906 27.5562C1.92956 27.8791 2.02267 27.6036 1.95147 28.2407C1.55164 28.5937 1.4421 29.2093 1.38732 29.2609C1.33255 29.3126 1.37089 28.8993 1.34351 26.8373L1.34898 26.833Z" fill="#E4007F"/>
<path d="M13.6834 15.6694C13.3822 14.1369 13.6834 13.7365 14.0559 13.659C14.4283 13.5816 14.861 13.7753 14.735 13.1166C14.6638 12.7292 13.6506 13.3362 13.4917 13.0736C13.4643 13.0262 13.667 12.5054 13.7437 11.9242C13.8258 11.3431 13.7875 10.693 13.2726 10.4347C11.9472 9.76319 13.3986 11.5927 13.4096 11.7176C13.4589 12.3891 13.185 12.8153 12.7194 13.0607C12.2484 13.306 11.5802 13.3749 10.8353 13.2974C10.0959 13.22 9.28527 12.9961 8.56229 12.6259C7.8393 12.26 7.19847 11.7477 6.77126 11.102C6.34404 10.452 6.114 9.66418 6.21259 8.74295C6.25641 8.32108 6.44263 7.73563 6.72196 7.18031C7.0013 6.62499 7.37922 6.0955 7.80644 5.75972C8.23365 5.42394 8.71564 5.27328 9.21406 5.49713C10.3369 5.99648 10.2821 6.9091 10.0411 7.64092C9.80012 8.37274 9.39481 8.93667 9.86037 8.83766C9.89323 8.82905 10.3752 8.18763 10.43 8.21777C10.6546 8.34691 10.2931 9.50921 10.6546 9.55656C10.7531 9.56948 10.9941 9.3241 11.3611 8.94097C11.7226 8.55354 12.2046 8.02405 12.7633 7.46442C13.3219 6.9048 13.9573 6.31504 14.6638 5.77694C15.3704 5.23884 16.0331 4.80405 16.422 4.65769C16.8164 4.51133 17.4791 4.37357 18.35 4.43384C19.2537 4.49411 19.9548 5.01929 20.382 5.67793C20.8092 6.33226 20.9954 7.09421 21.1159 7.529C21.2364 7.96378 21.2967 8.0671 21.4884 7.42568C21.5322 7.28793 21.4774 6.82301 21.2967 6.25908C21.1159 5.69515 20.8092 5.03651 20.3601 4.52424C19.9109 4.01197 19.3194 3.65036 18.6621 3.62454C18.7388 2.97451 18.6183 2.47085 18.5252 2.09202C18.4376 1.7132 18.3828 1.45922 18.6183 1.28272C18.8538 1.10622 19.3742 0.989992 20.5792 0.929725C20.979 0.908201 21.5048 0.955554 22.0635 1.10622C22.6221 1.25689 23.2082 1.52809 23.7066 1.92844C24.205 2.33309 24.6213 2.87119 24.8513 3.53413C25.0868 4.19707 25.1416 4.98486 24.928 5.89317C24.7582 6.61638 24.3365 7.20183 23.7997 7.71841C23.263 8.23498 22.6167 8.68269 22.0087 9.08734C21.4007 9.49199 20.8311 9.85359 20.4203 10.1937C20.0095 10.5294 19.7521 10.848 19.7357 11.1752C19.7192 11.5066 19.9328 11.8553 20.5244 12.2212C20.8311 12.4063 21.576 12.4236 21.9594 12.415C22.8522 12.3977 23.7011 12.0749 24.1448 12.0232C24.5884 11.9716 24.6213 12.1653 23.9038 13.1597C23.3287 13.9561 22.6605 14.5544 21.9758 14.9849C21.2912 15.4197 20.5846 15.6866 19.9438 15.7598C19.303 15.833 18.7224 15.7038 18.2678 15.3164C17.8132 14.929 17.4681 14.3823 17.2217 13.5342C17.2107 13.3749 17.3312 13.0736 17.5174 12.6517C17.7036 12.2298 17.9611 11.6874 18.1637 11.0805C18.3664 10.4735 18.5033 9.81485 18.4157 9.19496C18.2733 8.18763 18.1583 8.5148 18.0651 9.15621C17.972 9.79763 17.8899 10.7404 17.8187 11.003C17.7475 11.2699 17.0409 12.7335 16.9861 12.7077C16.7506 12.0404 16.6794 11.2699 16.4932 10.6715C16.307 10.0731 16.1591 9.56948 15.9126 9.34132C15.6662 9.11747 15.332 9.17343 14.7569 9.67279C14.0887 10.2582 14.2969 10.3142 14.7131 10.2884C15.1294 10.2626 15.7483 10.1463 15.9126 10.3917C15.9674 10.4735 16.1098 10.9212 16.3344 11.5368C16.5534 12.1524 16.7506 12.9746 16.9588 13.7581C17.1669 14.5415 17.4462 15.2131 17.8296 15.7254C17.2983 15.6134 17.03 15.2174 16.3344 15.2949C15.8305 15.3508 15.1787 15.5532 14.6474 15.6909C14.1161 15.8287 13.7053 15.8975 13.667 15.6694H13.6834Z" fill="#E4007F"/>
<path d="M5.74699 9.64282C4.56392 9.4534 4.20791 8.911 4.15861 8.2007C4.10932 7.49041 4.38865 6.62945 4.61322 5.93207C4.83778 5.23469 4.99114 4.69229 4.6899 4.59328C4.47081 4.52009 4.45438 4.83434 4.39961 5.32509C4.34484 5.81584 4.24625 6.4917 3.86833 7.04271C3.53422 7.53346 2.93721 8.13183 2.36759 8.61827C1.79248 9.10472 1.24477 9.48354 0.894233 9.48784C0.538218 9.49215 0.351996 9.10471 0.53822 8.09308C0.631331 7.57651 0.866847 6.98675 1.20643 6.35825C1.54601 5.73405 1.99514 5.07972 2.52095 4.46413C3.04675 3.84854 3.64924 3.276 4.30102 2.79387C4.94732 2.30742 5.63745 1.91138 6.31114 1.61865C6.98483 1.32593 7.65304 1.13651 8.23361 1.05903C8.81419 0.981541 9.32357 1.01167 9.67411 1.15804C10.3095 1.42494 10.5285 1.69183 10.4957 1.96304C10.4628 2.22994 10.1835 2.51405 9.86033 2.9187C9.5317 3.32766 9.15925 3.85715 8.92374 4.67507C8.41436 4.63202 7.91046 4.86878 7.45586 5.29926C7.00126 5.72975 6.60142 6.35825 6.30018 7.10728C5.99894 7.86063 5.80176 8.7345 5.75246 9.64712L5.74699 9.64282Z" fill="#E4007F"/>
<path d="M22.4799 11.7129C22.4032 11.7215 21.7514 11.6914 21.1982 11.5752C20.645 11.4546 20.1959 11.2394 20.4424 10.895C21.0394 10.7056 21.724 10.245 22.3922 9.71119C23.0604 9.1774 23.6958 8.57472 24.1833 8.10119C24.6707 7.62766 25.0048 7.27897 25.087 7.23593C25.6292 6.93029 26.2208 6.8528 26.7411 7.01638C27.2614 7.17566 27.716 7.5717 28.0173 8.13133C28.3185 8.69095 28.4773 9.40985 28.4171 10.2105C28.3568 11.0112 28.0775 11.8937 27.4531 12.8752C27.1026 13.4262 26.6973 13.7276 26.2372 14.4809C25.7771 15.2343 25.2623 15.9402 24.7091 16.5946C24.1559 17.2446 23.5753 17.843 22.9892 18.3768C22.4032 18.9106 21.8117 19.3712 21.2475 19.75C20.6779 20.1288 20.1356 20.4302 19.6317 20.6282C19.1279 20.8305 18.6678 20.9295 18.2625 20.9166C17.8572 20.9037 17.5121 20.7745 17.2218 20.512C17.4518 19.9609 17.649 19.4831 17.8352 19.0268C18.0215 18.5705 18.1913 18.1314 18.3775 17.6493C18.5637 17.1671 18.7718 16.9131 19.0293 16.4482C19.4565 16.5989 20.0261 16.4999 20.6669 16.2416C21.3078 15.9876 22.0088 15.5743 22.6661 15.0879C23.3233 14.5971 23.9258 14.0332 24.353 13.4305C25.1746 12.2898 25.4211 11.6914 25.328 11.4073C25.2349 11.1232 24.7967 11.1576 24.238 11.2954C23.6794 11.4331 23.0166 11.6699 22.4744 11.7215L22.4799 11.7129Z" fill="#E4007F"/>
<path d="M3.23862 20.1518C2.8607 20.1346 2.48277 20.0872 2.1651 19.9581C1.84743 19.8333 1.59548 19.6309 1.42021 19.2909C1.25042 18.9508 1.15183 18.4686 1.18469 17.7713C1.21755 17.0739 1.37091 16.144 1.81456 14.9301C2.49921 14.6718 3.09622 14.2241 3.40294 13.8281C3.70966 13.432 3.70966 13.0919 3.33721 13.1436C3.24958 13.1565 2.51564 13.7807 1.89124 14.0863C1.26685 14.392 0.741041 14.3877 0.658884 13.0187C0.604113 12.0975 0.784859 11.37 1.10253 10.7415C1.42021 10.1173 1.87481 9.61365 2.34037 9.18747C2.80593 8.7656 3.28244 8.42121 3.57821 8.03809C3.64393 8.03809 3.73156 8.60632 4.02185 9.2133C4.31214 9.81597 4.79413 10.4574 5.71429 10.5435C6.02101 11.1591 6.40441 11.5982 6.6947 11.977C6.97952 12.3558 7.16574 12.6787 7.06715 13.0704C6.96856 13.4578 6.57968 13.9141 5.78002 14.5986C5.24326 15.0549 4.83795 15.2788 4.52575 15.4467C4.20808 15.6145 3.98352 15.7222 3.81372 15.9546C3.64393 16.1871 3.53439 16.5487 3.45223 17.203C3.37007 17.8574 3.32626 18.8259 3.23862 20.1518Z" fill="#E4007F"/>
<path d="M11.2461 8.02905C10.8792 8.18833 10.912 7.83534 10.786 7.18531C10.6601 6.53528 10.3643 5.5667 9.37842 4.67561C9.69062 3.78881 10.0466 3.36264 10.3479 3.0613C10.6491 2.76427 10.8901 2.60069 10.9777 2.31657C11.0599 2.03245 10.9832 1.60197 10.6491 0.934727C10.8846 0.74962 11.4159 0.530075 12.002 0.40954C12.588 0.289005 13.2289 0.258872 13.6999 0.443978C14.1709 0.63339 14.4722 1.04235 14.3571 1.81291C14.3133 2.10563 13.1905 2.70831 13.0098 3.12157C12.6976 3.84047 13.0645 3.67689 13.5849 3.29807C14.1052 2.91924 14.7679 2.33379 15.0637 2.23478C15.2773 1.92914 14.8501 1.81721 14.516 0.362187C14.9651 0.0909838 15.4088 0.065155 15.7648 0.258871C16.1208 0.452588 16.7452 0.702267 17.2984 1.18871C17.8516 1.67515 18.3007 2.41989 18.3171 3.51331C17.2655 3.56066 16.5316 3.79742 16.181 3.97823C15.8305 4.15903 14.7351 4.87363 13.9957 5.472C13.2562 6.07036 12.6373 6.67734 12.1608 7.15518C11.6843 7.63301 11.3666 7.9817 11.2516 8.02905H11.2461Z" fill="#E4007F"/>
<path d="M7.43407 22.1536C7.03424 22.1406 6.52487 22.033 6.13599 21.6757C5.74711 21.3184 5.48968 20.733 5.50611 20.0786C6.95208 19.1359 7.86129 18.5375 8.34328 18.1888C8.82527 17.8401 8.90742 17.7454 8.91838 17.866C8.92933 17.9865 8.85813 18.3395 9.02244 18.8388C9.28535 19.6352 9.39489 19.3554 9.43871 18.7011C9.48253 18.0468 9.43871 17.2633 9.44966 17.203C9.46609 17.1126 9.76734 16.7855 10.1069 16.2732C10.4465 15.7609 10.8244 15.0635 10.9723 14.1853C11.8267 14.0993 12.4183 13.8065 12.7798 13.9615C13.1467 14.1122 13.3056 14.7622 13.207 16.2904C13.0208 17.1126 12.6867 17.8746 12.2759 18.5418C11.8651 19.2134 11.3612 19.7859 10.8135 20.2767C10.2658 20.7674 9.66875 21.3227 9.08817 21.6542C8.50759 21.9857 7.93249 22.1665 7.4286 22.1492L7.43407 22.1536Z" fill="#E4007F"/>
<path d="M26.0948 22.6918C25.9141 22.2096 26.2975 21.805 26.6316 21.5338C26.9602 21.2626 27.2341 21.1119 26.774 21.0645C27.1738 20.4274 27.004 20.6513 26.8561 20.7072C26.7083 20.7632 26.6097 20.6857 27.0095 19.2737C27.7434 18.3095 27.7544 18.12 27.5517 18.1502C27.3546 18.1803 26.9219 18.4472 26.7411 18.3826C26.6809 18.3611 26.4289 18.0512 26.1606 17.6723C25.8976 17.2935 25.6183 16.8415 25.5854 16.5574C25.9196 16.0968 26.407 15.2573 26.8342 14.4567C27.2615 13.656 27.6449 13.346 27.8475 13.1652C28.3076 12.7476 28.2528 12.6529 28.8224 12.8725C29.1237 12.9887 29.3756 13.204 29.5728 13.4579C29.77 13.7119 29.9124 14.3663 29.9672 14.9775C30.0274 15.5888 30.0055 16.2388 29.896 16.8932C29.7809 17.5475 29.5783 18.2018 29.2661 18.8519C28.9539 19.5019 28.5431 20.1433 28.0118 20.7804C27.486 21.4175 26.8452 22.0546 26.0894 22.6918H26.0948Z" fill="#E4007F"/>
<path d="M7.35735 18.3169C7.08897 18.5063 6.15238 19.0056 5.32533 19.4404C4.49828 19.8752 3.80268 20.2454 3.70409 20.099C3.66028 18.799 3.66028 17.9122 3.76434 17.3354C3.86841 16.7585 4.07654 16.4701 4.39969 16.2204C4.72284 15.9707 5.15554 15.7598 5.71968 15.325C6.28383 14.8902 6.97943 14.2359 7.79005 13.0908C8.10224 13.418 8.68282 13.616 9.19767 13.7495C9.718 13.8829 10.1726 13.9518 10.2274 13.9948C10.5889 14.2789 10.4629 14.8084 10.1014 15.3982C9.73991 15.988 9.14838 16.638 8.60067 17.1847C8.05295 17.7314 7.54905 18.1748 7.35187 18.3082L7.35735 18.3169Z" fill="#E4007F"/>
<path d="M27.0041 19.269C26.5988 20.6809 26.7028 20.7584 26.8507 20.7025C26.9986 20.6465 27.1684 20.4226 26.7686 21.0598C27.2286 21.1114 26.9548 21.2578 26.6262 21.529C26.2975 21.8002 25.9141 22.2048 26.0894 22.687C25.7772 22.9496 25.5143 23.1476 25.2021 23.38C24.627 23.8105 24.0355 24.2281 23.4494 24.6155C22.8634 25.003 22.2773 25.3646 21.7077 25.6831C21.138 26.0017 20.5849 26.2815 20.0645 26.5096C19.5442 26.7378 19.0458 26.91 18.5857 27.0219C18.9034 26.6302 19.243 26.049 19.5113 25.5368C19.7797 25.0245 19.9714 24.5854 20.0098 24.5337C20.0919 24.439 20.437 24.2109 20.9573 23.8794C21.4776 23.5479 22.1678 23.1088 22.9181 22.6095C23.6685 22.1101 24.4736 21.5505 25.1966 20.9823C25.9196 20.414 26.5604 19.8372 26.9986 19.2646L27.0041 19.269Z" fill="#E4007F"/>
<path d="M17.7694 30.5048C17.2162 30.4273 17.9665 29.7945 18.8374 29.11C19.7083 28.4298 20.6996 27.6937 20.4039 27.5344C20.2834 27.4699 19.763 28.3308 20.5353 26.8543C20.9625 26.6649 21.4336 26.398 21.921 26.0923C22.4085 25.7867 22.9124 25.4466 23.3999 25.1238C23.8873 24.8009 24.3639 24.4909 24.7911 24.2499C24.9006 24.1896 25.3881 23.6989 25.2128 24.1466C24.9335 24.6588 24.5008 25.2271 23.9695 25.8125C23.4437 26.3937 22.8248 26.992 22.1894 27.5517C21.5541 28.1113 20.9023 28.6408 20.3053 29.0842C19.7083 29.5319 19.1606 29.8978 18.7224 30.1432C18.2842 30.3928 17.9501 30.5263 17.7748 30.5005L17.7694 30.5048Z" fill="#E4007F"/>
<path d="M3.38098 37.7843C4.37782 37.018 5.10081 36.3594 5.52803 35.8385C5.96072 35.3176 6.13051 34.9173 6.21267 34.6202C6.29483 34.3189 6.3003 34.1209 6.42628 34.0133C6.94661 33.6689 7.34096 33.4106 7.74079 33.1566C8.13515 32.9026 8.53498 32.6529 9.06626 32.3301C9.61946 32.6142 10.0029 32.9112 9.87688 33.7076C9.2963 34.0994 8.68834 34.5169 8.08038 34.9388C7.47241 35.3607 6.85897 35.7825 6.26196 36.1829C5.82927 36.4756 5.1501 36.9965 4.56405 37.3839C3.98347 37.7714 3.50696 38.021 3.38098 37.7843Z" fill="#E4007F"/>
<path d="M1.41462 34.9942C1.58988 34.6498 1.95138 34.3442 2.35669 34.228C2.76199 34.1117 3.18373 34.2021 3.19469 34.6972C2.74556 34.4475 3.00299 33.9955 2.18142 35.2611C2.15951 36.4062 1.88565 35.2224 1.7542 36.036C1.69395 36.3976 2.0883 36.5353 2.09378 36.5827C2.10473 36.785 1.78706 37.435 1.8254 37.6718C1.8254 37.6933 2.0883 37.7794 2.11021 37.745C2.20333 37.6158 2.26905 37.0476 2.39503 36.7936C2.51552 36.5396 2.72365 36.7161 3.07967 37.7278C2.18689 38.3692 1.62822 38.4983 1.34889 38.2831C1.06408 38.0678 1.02574 37.5168 1.04765 36.8926C1.06955 36.2727 1.11337 35.5883 1.42009 34.9856L1.41462 34.9942Z" fill="#E4007F"/>
<path d="M1.54074 33.1865C1.44763 32.9283 1.39833 32.5064 1.3819 32.0156C1.36547 31.5249 1.3819 30.9567 1.44763 30.4056C1.51336 29.8546 1.63933 29.3208 1.88032 28.9205C2.24182 28.3221 2.6526 28.4254 3.10173 28.6234C3.55085 28.8215 4.0438 29.097 4.67367 28.8516C4.32861 28.998 4.01641 29.0798 3.71517 29.2864C3.4194 29.493 3.13459 29.8331 2.86073 30.4702C2.82787 30.552 2.86073 30.9739 2.7731 31.1461C2.71833 31.2494 2.48281 31.2451 2.40613 31.4603C2.15418 32.1964 2.93194 31.8176 2.92646 31.8994C2.92098 32.205 2.48829 32.6657 2.7238 32.8422C3.64944 31.5077 2.8443 33.4061 3.19484 33.4965C2.14323 34.1121 1.78721 33.3716 1.53526 33.1865H1.54074Z" fill="#E4007F"/>
<path d="M9.21974 35.4114C9.98655 34.9121 10.4685 34.9422 11.2299 34.4385C11.5475 34.2276 11.9474 33.8488 12.2869 33.5001C12.6265 33.1471 12.9059 32.8242 12.988 32.7683C13.229 32.6004 14.7462 31.8126 14.0835 32.7683C14.0506 32.7984 13.9794 33.0223 13.47 33.4226C12.9168 33.8574 12.0569 34.3352 11.2518 34.727C10.4521 35.123 9.70174 35.4373 9.20879 35.6353C8.71585 35.8333 8.58987 35.8204 9.21974 35.4071V35.4114Z" fill="#E4007F"/>
<path d="M14.4941 32.4718C14.5927 32.0413 14.8063 31.8347 15.2006 31.5979C15.595 31.3612 16.1701 31.0986 16.9862 30.4873C17.145 30.6982 17.2217 30.7972 17.3641 30.9824C17.3532 30.9953 17.5175 30.9565 17.2765 31.1675C17.1943 31.2406 16.4604 31.6797 15.7648 32.0758C15.0692 32.4718 14.4064 32.8205 14.3681 32.8119C14.3462 32.8033 14.4503 32.6526 14.4941 32.4718Z" fill="#E4007F"/>
<path d="M1.62271 34.0639C1.56246 34.3954 1.4803 34.3825 1.47482 34.404C1.37076 34.6408 1.25574 34.7183 1.15167 35.2133C1.14072 35.1574 1.13524 35.1272 1.12976 35.0626C1.19549 34.3954 1.22835 34.0424 1.2886 33.2891C1.40362 33.6205 1.46934 33.7712 1.62818 34.0639H1.62271Z" fill="#E4007F"/>
<path d="M0.571204 11.6185C0.105646 9.79326 0.96556 10.0903 0.976514 10.2108C0.987468 10.3098 0.593113 11.3559 0.571204 11.6185Z" fill="#E4007F"/>
<path d="M11.6516 25.5807C11.6242 24.1515 12.0842 23.5316 12.5991 23.3551C13.114 23.1829 13.6343 23.4197 13.7329 23.4024C14.3299 23.3034 14.4339 22.6792 14.6476 22.0938C14.8557 21.5126 15.1843 20.9874 16.2688 21.1725C16.6522 21.2371 16.7782 21.7236 16.7946 22.3004C16.811 22.8772 16.7179 23.5402 16.5372 24.0826C16.3564 24.625 16.0552 25.0641 15.6718 25.232C15.5513 25.9509 15.2172 26.5191 14.894 26.7559C14.5709 26.9926 14.2587 26.9152 14.0998 26.2608C13.3111 26.9065 12.7086 27.3499 12.2924 27.3499C11.8761 27.3499 11.6789 26.9238 11.6516 25.5764V25.5807Z" fill="#E4007F"/>
<path d="M3.1947 33.4954C2.84416 33.405 3.65478 31.5066 2.72367 32.8411C2.48815 32.6689 2.92084 32.2083 2.92632 31.8983C2.92632 31.8165 2.15404 32.1954 2.40599 31.4592C2.4772 31.244 2.71819 31.2483 2.77296 31.145C2.86607 30.9728 2.82773 30.5509 2.86059 30.4691C3.13445 29.832 3.41379 29.4919 3.71503 29.2853C4.0108 29.0787 4.32847 29.0012 4.67353 28.8505C4.97477 28.7214 5.33079 28.519 5.65942 28.1445C6.05377 28.8548 6.49195 29.3542 6.77676 29.7502C7.06157 30.142 7.19302 30.4261 6.97941 30.6758C6.7658 30.9297 6.19618 31.1579 5.18838 31.399C4.85975 31.8682 4.50374 32.303 4.16416 32.6689C3.8191 33.0305 3.49047 33.3232 3.20018 33.4911L3.1947 33.4954Z" fill="#E4007F"/>
<path d="M3.19473 34.6988C4.08751 35.1938 4.90908 34.871 5.37464 34.7117C5.8402 34.5524 5.95522 34.5309 5.58825 35.3144C5.4568 35.5942 5.0241 36.0419 4.58593 36.4551C4.14776 36.8684 3.71506 37.2472 3.51241 37.4065C3.4193 37.4797 3.17283 37.6691 3.07971 37.7337C2.71822 36.722 2.51557 36.5455 2.39507 36.7995C2.27457 37.0535 2.20337 37.6217 2.11026 37.7509C2.08835 37.781 1.83092 37.6992 1.82545 37.6777C1.78711 37.4409 2.10478 36.7866 2.09383 36.5886C2.09383 36.5412 1.69947 36.4035 1.75424 36.0419C1.88569 35.2283 2.15955 36.4121 2.18146 35.267C3.00303 34.0014 2.75108 34.4534 3.19473 34.7031V34.6988Z" fill="#E4007F"/>
<path d="M3.16732 36.4503C3.09064 36.545 2.96467 36.3642 2.97014 36.3427C3.04682 36.0327 3.45761 36.1059 3.16732 36.4503Z" fill="#E4007F"/>
<path d="M7.76807 36.156C7.82832 36.113 8.71562 35.4242 8.85254 35.308C9.33453 34.9162 9.6303 34.5374 10.1068 34.1586C10.5833 33.7841 11.1968 33.4569 12.2703 33.2158C11.6185 33.9778 11.0872 34.292 10.6545 34.4814C10.2218 34.6708 9.80557 34.7656 9.46598 34.9679C9.32358 35.0497 8.51296 35.8762 7.76807 36.1517V36.156Z" fill="#E4007F"/>
<path d="M10.4247 33.4401C11.1203 32.6049 10.6931 32.041 10.5561 31.4771C11.2572 31.2274 11.9199 31.081 12.5443 30.939C13.1687 30.7926 13.815 30.6247 14.4887 30.3621C15.1624 30.0995 15.7047 29.8197 16.3948 29.3204C16.8329 29.0018 17.7367 27.9988 17.8079 27.9514C17.9339 27.8696 18.4651 27.6501 18.9745 27.4693C19.4839 27.2885 19.9768 27.1464 19.9659 27.2541C19.944 27.5597 19.6537 27.9643 19.1936 28.412C18.7335 28.8597 18.1091 29.3548 17.419 29.8412C16.7289 30.3277 15.9785 30.8012 15.2555 31.2274C14.5325 31.6493 13.8369 32.0195 13.1523 32.3596C12.4677 32.6996 11.8597 32.9708 11.3996 33.1559C10.9395 33.3367 10.5726 33.4573 10.4302 33.4444L10.4247 33.4401Z" fill="#E4007F"/>
<path d="M14.9542 29.7C14.5708 29.8635 14.0176 30.0357 13.6013 30.1132C14.149 29.8722 14.7844 29.4503 15.2006 29.0069C15.6169 28.5635 15.9784 28.0168 16.1701 27.4141C16.3618 26.8114 16.3728 26.1657 16.1865 25.4769C16.5535 24.8872 16.8055 24.3362 16.9533 23.7421C17.0957 23.148 17.1286 22.5066 17.0629 21.6801C17.523 21.6801 17.9283 21.6414 18.3555 21.5897C18.7827 21.538 19.2373 21.4649 19.8836 21.3486C20.0205 22.2139 19.9712 23.0318 19.7905 23.7981C19.6098 24.5643 19.2976 25.2746 18.9196 25.9203C18.5362 26.5661 18.0871 27.1515 17.6215 27.6595C17.156 28.1675 16.6685 28.6022 16.2139 28.9466C15.7538 29.291 15.3266 29.5493 14.9542 29.7086V29.7Z" fill="#E4007F"/>
<path d="M13.0809 30.2371C11.9033 30.517 11.1803 30.7796 10.8298 30.87C10.4793 30.9604 10.534 30.8484 10.7586 30.4653C10.9832 30.0822 11.3885 29.4408 11.6897 28.3689C13.0426 27.4433 13.6231 27.3142 13.9518 27.3486C14.2804 27.3831 14.3187 27.6198 14.3845 27.6069C14.7295 27.5553 15.1896 26.9655 15.5456 26.5781C15.9016 26.1906 16.1098 26.0572 15.9948 26.8751C15.8743 27.7274 15.5894 28.201 15.1567 28.5884C14.7295 28.9758 14.2366 29.2212 13.8368 29.458C13.4369 29.6947 13.1357 29.9186 13.0754 30.2371H13.0809Z" fill="#E4007F"/>
<path d="M22.8523 21.9973C22.3923 22.1824 22.2444 21.739 22.1951 21.2095C22.1458 20.68 22.1951 20.0558 22.2225 19.974C22.2663 19.8578 22.7757 19.4273 23.3727 18.8935C23.9697 18.3597 24.6434 17.7398 24.9939 17.2275C25.3061 17.6064 25.5307 17.8819 25.7443 18.1574C25.9579 18.4329 26.1605 18.7041 26.4125 19.0614C26.4015 19.1733 26.04 19.5134 25.5416 19.931C25.0487 20.3485 24.4188 20.8479 23.893 21.2525C23.3672 21.6572 22.9455 21.9628 22.8578 21.9973H22.8523Z" fill="#E4007F"/>
<path d="M20.8641 23.3752C20.7272 23.4398 20.2945 23.6593 20.2616 23.5474C20.3054 23.104 20.3328 22.7596 20.3547 22.4109C20.3766 22.0622 20.393 21.7049 20.3985 21.2142C21.2803 20.4049 21.5761 20.2671 21.6857 20.5943C21.7952 20.9257 21.724 21.7049 21.8664 22.6089C21.5597 22.7983 20.9189 23.3494 20.8696 23.3709L20.8641 23.3752Z" fill="#E4007F"/>
<path d="M7.62582 35.9671C7.3191 36.1566 6.12508 36.7291 6.07031 36.7076C6.10318 36.6344 6.11961 36.5999 6.15247 36.5268C6.84807 36.0532 7.37935 35.7002 7.89968 35.3645C8.42001 35.0244 8.94582 34.6972 9.60855 34.2969C9.60855 34.3399 9.21968 34.6929 8.77603 35.0674C8.33238 35.442 7.83395 35.8423 7.6313 35.9671H7.62582Z" fill="#E4007F"/>
<path d="M10.556 31.4775C10.6984 32.0415 11.1201 32.6054 10.4245 33.4405C10.3698 32.8336 10.2986 32.106 9.66321 31.9123C9.77823 31.5206 10.3314 31.555 10.556 31.4775Z" fill="#E4007F"/>
<path d="M6.55226 33.5613C5.79641 34.0003 5.13368 34.349 4.61883 34.4653C4.0985 34.5815 3.72058 34.4653 3.46863 33.9487C4.44904 32.6702 5.13916 32.1407 5.62115 31.9082C6.10314 31.6757 6.39343 31.7102 6.78231 31.4002C7.45052 30.8707 7.67508 30.436 7.64222 30.0356C7.60935 29.6353 7.32454 29.2737 7.00687 28.9078C6.68919 28.5418 6.34961 28.1716 6.19625 27.7799C6.26198 27.6551 6.29484 27.5905 6.36604 27.4656C6.43724 27.3925 6.90828 27.1256 7.54363 26.8156C8.1735 26.5014 8.96769 26.1484 9.60851 25.8858C10.2548 25.6232 10.7478 25.4596 10.8244 25.4768C10.9614 25.5113 11.1257 25.7739 11.2407 26.1828C11.3557 26.5918 11.416 27.1385 11.3612 27.7368C11.3064 28.3352 11.1421 28.9895 10.808 29.6439C10.4794 30.2982 9.99191 30.9482 9.29084 31.6026C8.59524 32.2526 7.67508 32.9112 6.54679 33.5656L6.55226 33.5613Z" fill="#E4007F"/>
<path d="M9.41154 30.6985C9.34581 30.7243 9.12125 30.4574 9.42249 30.2378C9.88257 29.8978 9.71826 30.5779 9.41154 30.6985Z" fill="#E4007F"/>
</svg>
